<?xml version="1.0" encoding="utf-8"?>
<!-- Generator: Adobe Illustrator 27.5.0, SVG Export Plug-In . SVG Version: 6.00 Build 0)  -->
<svg version="1.1" xmlns="http://www.w3.org/2000/svg" xmlns:xlink="http://www.w3.org/1999/xlink" x="0px" y="0px"
	 viewBox="0 0 500 500" style="enable-background:new 0 0 500 500;" xml:space="preserve">
<g id="BACKGROUND">
	<rect style="fill:none;" width="500" height="500"/>
	<ellipse style="fill:#a5ffce;" cx="250" cy="390.539" rx="181.315" ry="49.403"/>
</g>
<g id="OBJECTS">
	<g>
		<g>
			<g>
				<g>
					<path style="fill:#F7C02F;" d="M140.849,286.849v-91.68c0-64.889,53.091-117.98,117.98-117.98h0
						c64.889,0,117.98,53.091,117.98,117.98v51.706c3.918,0.48,7.474,1.151,10.7,1.966v-53.703
						c0-70.774-57.906-128.681-128.681-128.681h0c-70.774,0-128.681,57.906-128.681,128.681v94.577
						C133.307,288.591,136.865,287.596,140.849,286.849z"/>
					<g>
						<g>
							<path style="fill:#FF9804;" d="M130.149,271.405c0.45,1.253,1.118,2.373,1.84,3.432c0.741,1.049,1.582,2.016,2.507,2.9
								c0.934,0.876,1.943,1.674,3.011,2.409c0.525,0.381,1.095,0.696,1.639,1.065c0.555,0.351,1.142,0.646,1.703,1.018
								c-0.645-0.161-1.279-0.371-1.918-0.578c-0.609-0.271-1.246-0.502-1.829-0.839c-1.194-0.625-2.293-1.434-3.295-2.351
								c-0.969-0.952-1.837-2.019-2.481-3.217C130.677,274.058,130.219,272.744,130.149,271.405z"/>
						</g>
						<g>
							<path style="fill:#FF9804;" d="M130.149,256.441c0.45,1.253,1.118,2.373,1.84,3.432c0.741,1.049,1.582,2.016,2.507,2.9
								c0.934,0.876,1.943,1.674,3.011,2.409c0.525,0.381,1.095,0.696,1.639,1.066c0.555,0.351,1.142,0.646,1.703,1.018
								c-0.645-0.161-1.279-0.371-1.918-0.578c-0.609-0.271-1.246-0.502-1.829-0.839c-1.194-0.625-2.293-1.434-3.295-2.351
								c-0.969-0.952-1.837-2.019-2.481-3.217C130.677,259.094,130.219,257.78,130.149,256.441z"/>
						</g>
						<g>
							<path style="fill:#FF9804;" d="M130.149,241.477c0.45,1.253,1.118,2.373,1.84,3.432c0.741,1.049,1.582,2.016,2.507,2.9
								c0.934,0.876,1.943,1.674,3.011,2.409c0.525,0.381,1.095,0.696,1.639,1.065c0.555,0.351,1.142,0.646,1.703,1.018
								c-0.645-0.161-1.279-0.371-1.918-0.578c-0.609-0.271-1.246-0.502-1.829-0.839c-1.194-0.626-2.293-1.434-3.295-2.351
								c-0.969-0.952-1.837-2.019-2.481-3.217C130.677,244.13,130.219,242.816,130.149,241.477z"/>
						</g>
						<g>
							<path style="fill:#FF9804;" d="M130.149,226.513c0.45,1.253,1.118,2.373,1.84,3.432c0.741,1.049,1.582,2.016,2.507,2.9
								c0.934,0.876,1.943,1.674,3.011,2.409c0.525,0.381,1.095,0.696,1.639,1.066c0.555,0.351,1.142,0.646,1.703,1.018
								c-0.645-0.161-1.279-0.371-1.918-0.578c-0.609-0.271-1.246-0.502-1.829-0.839c-1.194-0.626-2.293-1.434-3.295-2.351
								c-0.969-0.952-1.837-2.019-2.481-3.217C130.677,229.166,130.219,227.852,130.149,226.513z"/>
						</g>
						<g>
							<path style="fill:#FF9804;" d="M130.149,211.549c0.45,1.253,1.118,2.373,1.84,3.432c0.741,1.049,1.582,2.016,2.507,2.9
								c0.934,0.876,1.943,1.674,3.011,2.409c0.525,0.381,1.095,0.696,1.639,1.066c0.555,0.351,1.142,0.646,1.703,1.018
								c-0.645-0.161-1.279-0.371-1.918-0.578c-0.609-0.271-1.246-0.502-1.829-0.839c-1.194-0.625-2.293-1.434-3.295-2.351
								c-0.969-0.952-1.837-2.019-2.481-3.217C130.677,214.202,130.219,212.888,130.149,211.549z"/>
						</g>
						<g>
							<path style="fill:#FF9804;" d="M130.149,196.585c0.45,1.253,1.118,2.373,1.84,3.432c0.741,1.049,1.582,2.016,2.507,2.9
								c0.934,0.876,1.943,1.674,3.011,2.409c0.525,0.381,1.095,0.696,1.639,1.065c0.555,0.351,1.142,0.646,1.703,1.018
								c-0.645-0.162-1.279-0.371-1.918-0.578c-0.609-0.271-1.246-0.502-1.829-0.839c-1.194-0.625-2.293-1.434-3.295-2.351
								c-0.969-0.952-1.837-2.019-2.481-3.217C130.677,199.238,130.219,197.924,130.149,196.585z"/>
						</g>
						<g>
							<path style="fill:#FF9804;" d="M130.831,181.891c0.332,1.24,0.919,2.349,1.572,3.389c0.672,1.031,1.465,1.972,2.347,2.825
								c0.444,0.426,0.897,0.841,1.392,1.214c0.459,0.418,0.997,0.732,1.491,1.115c0.512,0.356,1.054,0.671,1.578,1.027
								c0.538,0.332,1.099,0.625,1.639,0.985c-0.624-0.15-1.232-0.356-1.853-0.544c-0.589-0.257-1.198-0.488-1.767-0.8
								c-1.144-0.614-2.226-1.366-3.174-2.278c-0.93-0.925-1.754-1.976-2.33-3.161C131.145,184.488,130.777,183.184,130.831,181.891
								z"/>
						</g>
						<g>
							<path style="fill:#FF9804;" d="M132.771,169.308c0.383,1.358,0.854,2.667,1.351,3.951c0.516,1.278,1.089,2.522,1.771,3.7
								c0.678,1.182,1.494,2.265,2.402,3.275c0.93,0.997,2.012,1.83,3.2,2.606c-1.342-0.416-2.659-1.078-3.74-2.042
								c-1.082-0.955-1.996-2.097-2.727-3.337C133.625,174.957,132.793,172.14,132.771,169.308z"/>
						</g>
						<g>
							<path style="fill:#FF9804;" d="M137.133,153.424l0.913,5.121c0.321,1.695,0.667,3.381,1.083,5.044
								c0.389,1.67,0.902,3.303,1.523,4.885c0.651,1.56,1.384,3.133,2.659,4.341c-1.529-0.903-2.581-2.454-3.369-4.017
								c-0.796-1.583-1.367-3.264-1.783-4.968C137.342,160.417,136.956,156.914,137.133,153.424z"/>
						</g>
						<g>
							<path style="fill:#FF9804;" d="M144.512,136.244c-0.223,1.726-0.314,3.447-0.354,5.157c-0.019,1.711,0.05,3.416,0.259,5.102
								c0.169,1.693,0.574,3.345,1.056,4.972c0.488,1.635,1.229,3.171,2.036,4.72c-1.123-1.32-2.137-2.8-2.77-4.453
								c-0.655-1.637-1.122-3.363-1.315-5.118C143.029,143.123,143.333,139.532,144.512,136.244z"/>
						</g>
						<g>
							<path style="fill:#FF9804;" d="M152.623,122.708c-0.526,1.793-0.968,3.594-1.371,5.393c-0.388,1.802-0.705,3.614-0.866,5.433
								c-0.164,1.816-0.175,3.646,0.122,5.429c0.291,1.781,0.95,3.512,2.115,4.983c-1.45-1.191-2.447-2.961-2.879-4.821
								c-0.475-1.863-0.507-3.795-0.354-5.68c0.187-1.885,0.558-3.742,1.109-5.539C151.039,126.107,151.738,124.358,152.623,122.708
								z"/>
						</g>
						<g>
							<path style="fill:#FF9804;" d="M161.691,110.972c-0.344,1.486-0.634,2.967-0.915,4.441c-0.269,1.476-0.49,2.954-0.598,4.433
								c-0.13,1.476-0.152,2.962,0.057,4.413c0.214,1.445,0.61,2.88,1.456,4.166c-1.147-1.027-1.871-2.505-2.222-4.021
								c-0.384-1.524-0.404-3.1-0.287-4.637c0.133-1.54,0.406-3.059,0.837-4.53C160.435,113.762,160.983,112.327,161.691,110.972z"
								/>
						</g>
						<g>
							<path style="fill:#FF9804;" d="M171.381,100.952c-0.326,1.294-0.584,2.584-0.832,3.865c-0.223,1.284-0.437,2.566-0.497,3.853
								c-0.077,1.282-0.068,2.567,0.123,3.832c0.219,1.257,0.587,2.489,1.207,3.683c-0.934-0.957-1.608-2.196-1.97-3.519
								c-0.367-1.326-0.421-2.707-0.357-4.06c0.084-1.356,0.352-2.686,0.739-3.972C170.178,103.347,170.696,102.102,171.381,100.952
								z"/>
						</g>
						<g>
							<path style="fill:#FF9804;" d="M181.977,92.098c-0.547,2.36-1.098,4.663-1.263,6.991c-0.08,1.156-0.108,2.323,0.087,3.457
								c0.193,1.135,0.562,2.23,1.176,3.292c-0.935-0.787-1.586-1.919-1.937-3.12c-0.374-1.208-0.391-2.474-0.322-3.705
								c0.095-1.234,0.349-2.443,0.733-3.603C180.832,94.25,181.313,93.122,181.977,92.098z"/>
						</g>
						<g>
							<path style="fill:#FF9804;" d="M195.568,83.196c-1.138,2.114-1.95,4.307-2.203,6.585c-0.146,1.132-0.149,2.284,0.002,3.427
								c0.107,1.157,0.439,2.275,0.74,3.451c-0.674-0.993-1.243-2.104-1.507-3.311c-0.186-0.593-0.216-1.214-0.292-1.83
								c-0.005-0.618-0.025-1.243,0.066-1.857c0.153-1.23,0.495-2.436,1.043-3.536C193.959,85.029,194.663,84.004,195.568,83.196z"
								/>
						</g>
						<g>
							<path style="fill:#FF9804;" d="M211.135,75.675c-1.341,2.026-2.432,4.123-3.082,6.362c-0.351,1.11-0.549,2.26-0.639,3.424
								c-0.127,1.172-0.017,2.345,0.049,3.571c-0.469-1.118-0.812-2.337-0.829-3.583c-0.07-0.624,0.032-1.243,0.064-1.868
								c0.107-0.614,0.21-1.232,0.396-1.828c0.363-1.193,0.881-2.336,1.565-3.367C209.341,77.36,210.153,76.411,211.135,75.675z"/>
						</g>
						<g>
							<path style="fill:#FF9804;" d="M227.355,70.379c-1.084,0.726-2.052,1.568-2.924,2.463c-0.857,0.911-1.589,1.92-2.075,3.034
								c-0.512,1.1-0.776,2.313-0.759,3.55c-0.042,1.244,0.23,2.488,0.502,3.771c-0.305-0.571-0.614-1.159-0.849-1.779
								c-0.175-0.637-0.413-1.275-0.432-1.955c-0.118-0.673-0.027-1.352,0.027-2.036c0.148-0.665,0.299-1.342,0.599-1.96
								c0.567-1.247,1.427-2.339,2.456-3.193C224.923,71.417,226.1,70.757,227.355,70.379z"/>
						</g>
						<g>
							<path style="fill:#FF9804;" d="M239.855,67.865c-1.556,1.723-2.931,3.505-3.942,5.482c-0.532,0.975-0.898,2.021-1.197,3.089
								c-0.325,1.074-0.394,2.191-0.517,3.358c-0.292-1.118-0.447-2.329-0.249-3.507c0.158-1.179,0.519-2.342,1.074-3.396
								c0.556-1.053,1.242-2.032,2.06-2.882C237.898,69.161,238.814,68.403,239.855,67.865z"/>
						</g>
						<g>
							<path style="fill:#FF9804;" d="M253.202,66.583c-0.925,0.822-1.835,1.626-2.72,2.447c-0.873,0.831-1.739,1.663-2.502,2.57
								c-0.782,0.89-1.464,1.853-1.964,2.897c-0.48,1.05-0.708,2.215-0.477,3.442c-0.638-1.08-0.657-2.503-0.251-3.722
								c0.403-1.231,1.12-2.315,1.935-3.269c0.827-0.95,1.762-1.786,2.765-2.518C250.99,67.702,252.055,67.057,253.202,66.583z"/>
						</g>
						<g>
							<path style="fill:#FF9804;" d="M270.718,66.583c-1.394,0.436-2.735,0.968-4.039,1.54c-1.291,0.596-2.56,1.24-3.67,2.087
								c-1.124,0.824-2.102,1.813-2.858,2.974c-0.717,1.19-1.106,2.548-1.321,4.003c-0.177-1.441-0.039-2.995,0.636-4.377
								c0.685-1.366,1.749-2.505,2.952-3.406c1.214-0.898,2.578-1.537,3.979-2.005C267.798,66.93,269.254,66.639,270.718,66.583z"/>
						</g>
						<g>
							<path style="fill:#FF9804;" d="M284.853,69.12c-1.095,0.562-2.174,1.106-3.228,1.681c-1.048,0.583-2.083,1.176-3.033,1.868
								c-0.961,0.673-1.839,1.45-2.516,2.366c-0.663,0.923-1.022,2.049-0.914,3.29c-0.529-1.126-0.391-2.57,0.251-3.7
								c0.63-1.142,1.585-2.037,2.598-2.769c1.028-0.723,2.134-1.304,3.284-1.759C282.442,69.641,283.629,69.289,284.853,69.12z"/>
						</g>
						<g>
							<path style="fill:#FF9804;" d="M302.936,74.291c-0.684-0.007-1.351,0.082-2.017,0.214c-0.665,0.107-1.324,0.247-1.977,0.395
								c-1.303,0.309-2.586,0.673-3.807,1.168c-1.231,0.472-2.376,1.126-3.356,1.963c-0.969,0.847-1.737,1.936-2.143,3.264
								c0.009-1.38,0.607-2.786,1.598-3.822c0.975-1.054,2.226-1.812,3.527-2.331c1.31-0.509,2.672-0.847,4.05-1.007
								C300.178,73.988,301.596,73.912,302.936,74.291z"/>
						</g>
						<g>
							<path style="fill:#FF9804;" d="M317.383,80.641c-1.508-0.084-3.002-0.123-4.485-0.135c-1.482,0.004-2.959,0.049-4.401,0.254
								c-1.436,0.198-2.862,0.54-4.085,1.244c-1.22,0.699-2.127,1.897-2.46,3.39c-0.03-0.757,0.139-1.531,0.477-2.248
								c0.355-0.709,0.907-1.325,1.553-1.793c1.303-0.944,2.863-1.356,4.379-1.583c1.531-0.197,3.066-0.198,4.578-0.041
								C314.45,79.875,315.943,80.176,317.383,80.641z"/>
						</g>
						<g>
							<path style="fill:#FF9804;" d="M330.515,88.422c-1.515-0.376-3.026-0.695-4.533-0.974c-1.508-0.263-3.021-0.471-4.521-0.479
								c-1.49-0.016-2.997,0.169-4.263,0.852c-1.286,0.669-2.097,2.027-2.467,3.545c-0.007-0.782,0.14-1.575,0.458-2.33
								c0.332-0.748,0.901-1.409,1.594-1.876c1.401-0.95,3.1-1.189,4.686-1.19c1.603,0.03,3.173,0.293,4.686,0.721
								C327.67,87.106,329.136,87.685,330.515,88.422z"/>
						</g>
						<g>
							<path style="fill:#FF9804;" d="M340.335,95.752c-1.345-0.185-2.678-0.341-4-0.488c-1.323-0.127-2.644-0.241-3.945-0.197
								c-1.292,0.028-2.604,0.182-3.684,0.757c-1.101,0.551-1.715,1.773-1.785,3.145c-0.151-0.663-0.153-1.376,0.051-2.074
								c0.219-0.693,0.709-1.315,1.318-1.731c1.233-0.848,2.701-1.045,4.075-1.096c1.391-0.025,2.759,0.139,4.092,0.429
								C337.791,94.779,339.093,95.195,340.335,95.752z"/>
						</g>
						<g>
							<path style="fill:#FF9804;" d="M349.383,103.934c-2.427-0.173-4.798-0.406-7.14-0.302c-1.165,0.048-2.325,0.188-3.402,0.548
								c-1.071,0.363-2.051,1.009-2.682,2.072c0.224-1.224,1.231-2.261,2.382-2.792c1.156-0.563,2.424-0.757,3.658-0.826
								c1.241-0.045,2.471,0.052,3.675,0.274C347.077,103.124,348.261,103.444,349.383,103.934z"/>
						</g>
						<g>
							<path style="fill:#FF9804;" d="M359.838,115.645c-1.16-0.359-2.306-0.672-3.454-0.926c-1.148-0.241-2.301-0.443-3.446-0.448
								c-1.143-0.029-2.272,0.111-3.349,0.466c-1.063,0.404-1.999,1.072-2.898,1.906c0.556-1.075,1.448-2.029,2.587-2.621
								c1.149-0.561,2.434-0.766,3.684-0.75c1.256,0.028,2.479,0.29,3.635,0.699C357.751,114.38,358.861,114.915,359.838,115.645z"
								/>
						</g>
						<g>
							<path style="fill:#FF9804;" d="M368.101,127.398c-1.113-0.257-2.2-0.519-3.287-0.741c-1.087-0.212-2.171-0.409-3.249-0.471
								c-1.076-0.087-2.15-0.03-3.144,0.27c-0.997,0.303-1.842,0.99-2.452,1.968c0.201-1.125,1.035-2.197,2.161-2.692
								c1.111-0.517,2.342-0.619,3.503-0.543c1.169,0.089,2.303,0.342,3.387,0.718C366.103,126.281,367.149,126.76,368.101,127.398z
								"/>
						</g>
						<g>
							<path style="fill:#FF9804;" d="M374.556,139.041c-0.996-0.691-2.008-1.308-3.047-1.834c-1.043-0.513-2.118-0.933-3.224-1.12
								c-1.105-0.188-2.222-0.083-3.279,0.284c-1.092,0.332-1.996,1.087-2.971,1.817c0.656-0.996,1.484-2.004,2.663-2.534
								c1.137-0.579,2.487-0.756,3.75-0.553c1.259,0.233,2.426,0.748,3.452,1.434C372.924,137.221,373.846,138.05,374.556,139.041z"
								/>
						</g>
						<g>
							<path style="fill:#FF9804;" d="M380.028,152.012c-0.936-0.795-1.895-1.518-2.886-2.168c-0.997-0.636-2.028-1.197-3.117-1.573
								c-1.089-0.371-2.226-0.521-3.369-0.447c-1.165,0.041-2.252,0.514-3.4,0.969c0.909-0.797,2.006-1.538,3.288-1.742
								c1.26-0.253,2.589-0.125,3.804,0.274c1.204,0.436,2.301,1.09,3.256,1.894C378.557,150.023,379.405,150.945,380.028,152.012z"
								/>
						</g>
						<g>
							<path style="fill:#FF9804;" d="M384.277,166.506c-0.78-1.077-1.666-2.035-2.596-2.92c-0.945-0.87-1.969-1.64-3.078-2.249
								c-1.096-0.63-2.28-1.11-3.522-1.407c-1.237-0.343-2.529-0.45-3.861-0.567c1.294-0.271,2.664-0.431,4.01-0.199
								c0.684,0.052,1.333,0.276,1.995,0.454c0.633,0.253,1.282,0.493,1.869,0.848C381.479,161.81,383.381,163.989,384.277,166.506z
								"/>
						</g>
						<g>
							<path style="fill:#FF9804;" d="M386.697,180.71c-0.85-0.99-1.727-1.931-2.6-2.859c-0.884-0.918-1.789-1.808-2.769-2.592
								c-0.968-0.791-1.986-1.534-3.113-2.05c-1.124-0.514-2.329-0.864-3.646-0.893c1.26-0.363,2.666-0.271,3.938,0.169
								c1.294,0.413,2.421,1.178,3.456,2.002c1.024,0.847,1.938,1.809,2.725,2.86C385.485,178.387,386.173,179.512,386.697,180.71z"
								/>
						</g>
						<g>
							<path style="fill:#FF9804;" d="M387.511,195.138c-0.766-1.126-1.545-2.222-2.318-3.311c-0.791-1.077-1.582-2.146-2.454-3.135
								c-0.854-1.004-1.786-1.932-2.82-2.716c-1.044-0.753-2.22-1.378-3.592-1.461c1.347-0.32,2.824,0.096,4.02,0.808
								c1.215,0.712,2.243,1.678,3.148,2.714C385.274,190.143,386.658,192.545,387.511,195.138z"/>
						</g>
						<g>
							<path style="fill:#FF9804;" d="M387.022,209.03c-0.686-1.07-1.39-2.107-2.087-3.137c-0.705-1.024-1.438-2.02-2.232-2.953
								c-0.776-0.947-1.63-1.826-2.593-2.55c-0.964-0.715-2.035-1.313-3.3-1.536c1.273-0.175,2.614,0.215,3.732,0.887
								c0.586,0.311,1.072,0.746,1.585,1.151c0.464,0.453,0.931,0.906,1.34,1.404C385.11,204.285,386.337,206.576,387.022,209.03z"
								/>
						</g>
						<g>
							<path style="fill:#FF9804;" d="M387.553,224.565c-0.58-1.428-1.221-2.811-1.878-4.173c-0.669-1.356-1.389-2.681-2.234-3.911
								c-0.831-1.232-1.752-2.418-2.889-3.357c-1.131-0.939-2.434-1.678-3.946-2.047c1.548-0.026,3.121,0.515,4.42,1.428
								c1.332,0.889,2.356,2.133,3.244,3.418c0.871,1.305,1.58,2.704,2.117,4.16C386.939,221.532,387.345,223.035,387.553,224.565z"
								/>
						</g>
						<g>
							<path style="fill:#FF9804;" d="M387.511,242.99c-0.58-1.376-1.187-2.722-1.805-4.053c-0.632-1.324-1.287-2.63-2.053-3.857
								c-0.758-1.225-1.608-2.403-2.672-3.329c-1.055-0.918-2.392-1.558-3.907-1.466c0.71-0.245,1.502-0.262,2.268-0.115
								c0.763,0.166,1.484,0.516,2.118,0.965c1.286,0.898,2.233,2.144,3.044,3.42c0.786,1.299,1.424,2.67,1.921,4.086
								C386.933,240.051,387.302,241.509,387.511,242.99z"/>
						</g>
					</g>
				</g>
			</g>
			<g>
				<g>
					
						<rect x="156.832" y="181.114" transform="matrix(0.9963 -0.0856 0.0856 0.9963 -18.2766 17.7382)" style="fill:#FFDE1D;" width="81.532" height="81.532"/>
					
						<rect x="188.191" y="181.114" transform="matrix(0.9963 -0.0856 0.0856 0.9963 -18.2766 17.7383)" style="fill:#F07400;" width="18.815" height="81.532"/>
					<path style="fill:#F07400;" d="M194.107,181.264c0,0-13.364-16.954-17.551-12.603c-4.187,4.351-4.668,9.809-1.814,14.267
						L194.107,181.264z"/>
					<path style="fill:#690005;" d="M172.966,176.35c-0.134,2.268,0.464,4.529,1.776,6.578l12.925-1.111
						C183.13,177.341,177.326,176.326,172.966,176.35z"/>
					<path style="fill:#F07400;" d="M194.107,181.264c0,0,10.274-18.986,15.143-15.413s6.274,8.869,4.223,13.749L194.107,181.264z"
						/>
					<path style="fill:#690005;" d="M214.1,172.814c0.519,2.212,0.316,4.541-0.627,6.785l-12.925,1.111
						C204.254,175.525,209.799,173.534,214.1,172.814z"/>
				</g>
				<g>
					<path style="fill:#670100;" d="M272.821,191.347c-1.221,0.173-2.42,0.404-3.607,0.66l-0.021-0.145l-5.962,0.846
						c27.666-3.928,53.277,15.315,57.205,42.981c3.928,27.666-15.315,53.277-42.981,57.205l5.962-0.846l-0.021-0.145
						c1.212-0.084,2.427-0.197,3.648-0.37c27.666-3.928,46.909-29.539,42.981-57.205
						C326.098,206.662,300.486,187.419,272.821,191.347z"/>
					
						<ellipse transform="matrix(0.7737 -0.6335 0.6335 0.7737 -92.6476 226.1989)" style="fill:#960001;" cx="270.344" cy="242.802" rx="50.595" ry="50.595"/>
					<g>
						<g>
							<path style="fill:#004F00;" d="M329.129,229.646l-109.32,15.521c0.075,1.574,0.216,3.156,0.442,4.747
								c0.312,2.198,0.776,4.337,1.352,6.421l108.912-15.463c-0.027-2.163-0.177-4.345-0.489-6.544
								C329.8,232.737,329.494,231.178,329.129,229.646z"/>
						</g>
					</g>
					<path style="fill:#004F00;" d="M270.851,293.384c2.182-0.024,4.386-0.175,6.605-0.49l4.446-0.631l-14.224-100.186l-4.446,0.631
						c-2.219,0.315-4.377,0.784-6.48,1.368L270.851,293.384z"/>
				</g>
				<g>
					<path style="fill:none;stroke:#5C8D00;stroke-linecap:round;stroke-miterlimit:10;" d="M433.877,175.528
						c0,0-46.431,12.636-85.448,61.551"/>
					<path style="fill:none;stroke:#5C8D00;stroke-linecap:round;stroke-miterlimit:10;" d="M431.315,184.44
						c0,0-8.325-0.059-12.314-3.2"/>
					<path style="fill:none;stroke:#5C8D00;stroke-linecap:round;stroke-miterlimit:10;" d="M428.099,170.214
						c0,0-4.467,4.918-5.402,9.405"/>
					<path style="fill:none;stroke:#5C8D00;stroke-linecap:round;stroke-miterlimit:10;" d="M424.711,189.434
						c0,0-12.276,0.264-15.918-3.127"/>
					<path style="fill:none;stroke:#5C8D00;stroke-linecap:round;stroke-miterlimit:10;" d="M412.5,195.71
						c0,0-7.248,0.586-13.029-4.03"/>
					<path style="fill:none;stroke:#5C8D00;stroke-linecap:round;stroke-miterlimit:10;" d="M418.822,173.957
						c0,0-4.801,3.877-6.035,10.266"/>
					<path style="fill:none;stroke:#5C8D00;stroke-linecap:round;stroke-miterlimit:10;" d="M408.546,176.379
						c-0.301,0.327-5.655,6.73-5.918,13.4"/>
					<path style="fill:none;stroke:#5C8D00;stroke-linecap:round;stroke-miterlimit:10;" d="M399.99,201.913
						c0,0-7.515,1.579-12.438-2.263"/>
					<path style="fill:none;stroke:#5C8D00;stroke-linecap:round;stroke-miterlimit:10;" d="M400.42,182.589
						c-0.301,0.327-7.048,6.016-8.209,13.791"/>
					<path style="fill:none;stroke:#5C8D00;stroke-linecap:round;stroke-miterlimit:10;" d="M389.766,188.486
						c-0.493,0.754-5.959,7.736-5.456,13.563"/>
					<path style="fill:none;stroke:#5C8D00;stroke-linecap:round;stroke-miterlimit:10;" d="M377.074,207.791
						c0,0-3.012-4.634-0.49-12.847"/>
					<path style="fill:none;stroke:#5C8D00;stroke-linecap:round;stroke-miterlimit:10;" d="M391.891,209.021
						c0,0-12.694,5.132-17.322,0.89"/>
					<path style="fill:none;stroke:#5C8D00;stroke-linecap:round;stroke-miterlimit:10;" d="M370.104,213.873
						c0,0-2.538-5.185-1.9-9.816"/>
					<path style="fill:none;stroke:#5C8D00;stroke-linecap:round;stroke-miterlimit:10;" d="M378.737,218.99
						c0,0-11.525,4.282-15.065,1.032"/>
					<path style="fill:none;stroke:#5C8D00;stroke-linecap:round;stroke-miterlimit:10;" d="M372.447,228.09
						c0,0-10.382,1.122-13.02-3.718"/>
					<path style="fill:none;stroke:#5C8D00;stroke-linecap:round;stroke-miterlimit:10;" d="M361.395,222.232
						c0,0-4.892-5.177-0.967-16.256"/>
					<path style="fill:none;stroke:#5C8D00;stroke-linecap:round;stroke-miterlimit:10;" d="M364.1,234.907
						c0,0-8.19,2.938-12.438-1.777"/>
					<path style="fill:none;stroke:#5C8D00;stroke-linecap:round;stroke-miterlimit:10;" d="M354.459,229.866
						c0,0-4.722-3.54-2.928-10.743"/>
					<path style="fill:none;stroke:#5C8D00;stroke-linecap:round;stroke-miterlimit:10;" d="M404.795,199.087
						c0,0-9.484-1.571-9.629-4.676"/>
					<path style="fill:none;stroke:#5C8D00;stroke-linecap:round;stroke-miterlimit:10;" d="M389.947,205.195
						c0,0-5.896,2.038-9.295-0.312"/>
					<path style="fill:none;stroke:#5C8D00;stroke-linecap:round;stroke-miterlimit:10;" d="M364.838,209.03
						c-0.39,0.643-1.826,6.283,0.607,9.242"/>
					<path style="fill:none;stroke:#5C8D00;stroke-linecap:round;stroke-miterlimit:10;" d="M382.157,195.574
						c0,0-4.955,6.467-3.344,10.787"/>
					<path style="fill:none;stroke:#5C8D00;stroke-linecap:round;stroke-miterlimit:10;" d="M417.734,168.933
						c0,0-12.22,12.415-11.077,18.542"/>
					<path style="fill:none;stroke:#5C8D00;stroke-linecap:round;stroke-miterlimit:10;" d="M356.921,227.097
						c0,0-4.644-7.691-1.641-13.582"/>
				</g>
				<g>
					
						<rect x="266.268" y="176.009" transform="matrix(0.9615 0.2747 -0.2747 0.9615 78.5207 -73.9703)" style="fill:#FF8789;" width="74.133" height="134.652"/>
					
						<rect x="338.413" y="190.205" transform="matrix(0.9615 0.2747 -0.2747 0.9615 84.3319 -87.0739)" style="fill:#F54C4F;" width="29.22" height="134.652"/>
					
						<rect x="298.14" y="176.009" transform="matrix(0.9615 0.2747 -0.2747 0.9615 78.5211 -73.9706)" style="fill:#F4CD6E;" width="10.391" height="134.652"/>
					
						<rect x="275.01" y="210.62" transform="matrix(0.9615 0.2747 -0.2747 0.9615 71.5765 -81.4839)" style="fill:#F4CD6E;" width="103.353" height="8.333"/>
					<g>
						<path style="fill:#F8C129;" d="M308.235,212.848c-2.729-0.427-5.377,0.919-7.911,2.016c-3.964,1.717-8.369,2.917-12.588,1.988
							c-1.034-0.228-2.079-0.605-2.817-1.365c-1.508-1.552-1.227-4.103-0.441-6.12c0.786-2.016,1.987-3.958,2.024-6.122
							c0.03-1.739-0.707-3.488-0.308-5.18c0.519-2.203,2.893-3.579,5.156-3.637c2.263-0.058,4.417,0.912,6.412,1.982
							c4.751,2.547,9.238,5.886,12.091,10.46L308.235,212.848z"/>
						<path style="fill:#F8C129;" d="M309.852,206.871c0,0,6.442,0.316,8.098,2.314l-1.733,6.064c0,0-5.186,0.505-7.982-2.4
							L309.852,206.871z"/>
						<path style="fill:#F8C129;" d="M316.217,215.249c0.422,0.9,1.026,1.445,1.733,2.145c2.479,2.453,5.232,4.63,8.191,6.477
							c1.697,1.059,3.499,2.024,5.465,2.396c1.966,0.372,4.135,0.081,5.701-1.164c0.507-0.403,0.948-0.91,1.177-1.517
							c0.458-1.216-0.005-2.578,0.136-3.87c0.333-3.037,3.892-5.191,3.639-8.236c-0.114-1.367-1.035-2.571-2.185-3.318
							c-1.15-0.748-2.51-1.099-3.859-1.345c-5.989-1.094-12.736-0.178-18.265,2.37L316.217,215.249z"/>
						<path style="fill:#FF9A00;" d="M284.3,214.577c0.161,0.327,0.354,0.639,0.619,0.912c0.738,0.759,1.783,1.137,2.817,1.365
							c4.219,0.928,8.624-0.272,12.588-1.988c2.534-1.097,5.182-2.443,7.911-2.016C308.235,212.848,301.359,205.9,284.3,214.577z"/>
						<path style="fill:#FF9A00;" d="M326.141,223.87c1.697,1.059,3.499,2.024,5.465,2.396c1.522,0.288,3.162,0.172,4.553-0.469l0,0
							c-2.996-7.43-19.942-10.548-19.942-10.548c0.422,0.9,1.026,1.445,1.733,2.145C320.429,219.847,323.182,222.023,326.141,223.87
							z"/>
					</g>
				</g>
				<g>
					<g>
						<path style="fill:#5C8D00;" d="M273.514,233.796c-6.023-1.449-9.045-7.939-9.045-7.939s-1.135,6.8-6.625,9.107
							c0,0,7.035,5.169,1.518,10.69c0,0,5.912,4.085,4.596,10.752c0,0,5.535,4.843,6.294,10.188
							c-0.759-5.345,3.299-10.903,3.299-10.903c-3.161-6.334,1.479-11.205,1.479-11.205
							C268.078,239.894,273.514,233.796,273.514,233.796z"/>
						<g>
							
								<line style="fill:none;stroke:#417300;stroke-linecap:round;stroke-miterlimit:10;" x1="264.613" y1="226.868" x2="270.253" y2="266.594"/>
						</g>
					</g>
				</g>
				<g>
					<g>
						<path style="fill:#5C8D00;" d="M127.632,247.366c-8.553,3.327-17.715-2.016-17.715-2.016s4.366,9.233-0.363,16.679
							c0,0,12.929,0.343,10.882,11.724c0,0,10.646-0.026,14.681,9.198c0,0,10.828,1.215,16.269,7.077
							c-5.441-5.862-5.2-16.055-5.2-16.055c-9.2-5.035-7.671-14.884-7.671-14.884C126.172,259.38,127.632,247.366,127.632,247.366z"
							/>
						<g>
							
								<line style="fill:none;stroke:#417300;stroke-linecap:round;stroke-miterlimit:10;" x1="110.946" y1="246.459" x2="151.384" y2="290.028"/>
						</g>
					</g>
				</g>
				<g>
					<path style="fill:none;stroke:#5C8D00;stroke-linecap:round;stroke-miterlimit:10;" d="M84.008,211.1
						c0,0,48.158,23.852,80.374,85.864"/>
					<path style="fill:none;stroke:#5C8D00;stroke-linecap:round;stroke-miterlimit:10;" d="M84.895,221.419
						c0,0,9.135,1.729,14.184-0.853"/>
					<path style="fill:none;stroke:#5C8D00;stroke-linecap:round;stroke-miterlimit:10;" d="M91.485,206.523
						c0,0,3.835,6.352,3.893,11.471"/>
					<path style="fill:none;stroke:#5C8D00;stroke-linecap:round;stroke-miterlimit:10;" d="M91.056,228.314
						c0,0,13.396,2.935,18.117,0.003"/>
					<path style="fill:none;stroke:#5C8D00;stroke-linecap:round;stroke-miterlimit:10;" d="M103.085,237.824
						c0,0,7.816,2.203,15.146-1.609"/>
					<path style="fill:none;stroke:#5C8D00;stroke-linecap:round;stroke-miterlimit:10;" d="M100.845,212.623
						c0,0,4.426,5.283,4.401,12.551"/>
					<path style="fill:none;stroke:#5C8D00;stroke-linecap:round;stroke-miterlimit:10;" d="M111.583,217.492
						c0.259,0.423,4.746,8.593,3.598,15.96"/>
					<path style="fill:none;stroke:#5C8D00;stroke-linecap:round;stroke-miterlimit:10;" d="M115.457,247.317
						c0,0,7.896,3.35,14.118,0.201"/>
					<path style="fill:none;stroke:#5C8D00;stroke-linecap:round;stroke-miterlimit:10;" d="M119.15,226.048
						c0.259,0.423,6.427,8.111,6.023,16.882"/>
					<path style="fill:none;stroke:#5C8D00;stroke-linecap:round;stroke-miterlimit:10;" d="M129.554,234.806
						c0.377,0.933,4.863,9.762,3.056,16.039"/>
					<path style="fill:none;stroke:#5C8D00;stroke-linecap:round;stroke-miterlimit:10;" d="M139.303,258.696
						c0,0,4.3-4.429,3.306-13.972"/>
					<path style="fill:none;stroke:#5C8D00;stroke-linecap:round;stroke-miterlimit:10;" d="M122.8,256.851
						c0,0,12.804,8.359,18.791,4.707"/>
					<path style="fill:none;stroke:#5C8D00;stroke-linecap:round;stroke-miterlimit:10;" d="M145.631,266.862
						c0,0,3.898-5.135,4.198-10.347"/>
					<path style="fill:none;stroke:#5C8D00;stroke-linecap:round;stroke-miterlimit:10;" d="M135.067,270.61
						c0,0,11.707,7.176,16.286,4.377"/>
					<path style="fill:none;stroke:#5C8D00;stroke-linecap:round;stroke-miterlimit:10;" d="M139.999,281.938
						c0,0,11.135,3.467,15.068-1.269"/>
					<path style="fill:none;stroke:#5C8D00;stroke-linecap:round;stroke-miterlimit:10;" d="M153.373,277.9
						c0,0,6.476-4.619,4.562-17.606"/>
					<path style="fill:none;stroke:#5C8D00;stroke-linecap:round;stroke-miterlimit:10;" d="M147.677,291.206
						c0,0,8.342,4.984,14.014,0.733"/>
					<path style="fill:none;stroke:#5C8D00;stroke-linecap:round;stroke-miterlimit:10;" d="M159.329,287.759
						c0,0,5.938-2.861,5.523-11.141"/>
					<path style="fill:none;stroke:#5C8D00;stroke-linecap:round;stroke-miterlimit:10;" d="M110.801,243.185
						c0,0,10.731,0.322,11.56-3.049"/>
					<path style="fill:none;stroke:#5C8D00;stroke-linecap:round;stroke-miterlimit:10;" d="M125.756,253.077
						c0,0,6.022,3.504,10.253,1.661"/>
					<path style="fill:none;stroke:#5C8D00;stroke-linecap:round;stroke-miterlimit:10;" d="M152.445,262.69
						c0.288,0.788,0.647,7.279-2.657,9.998"/>
					<path style="fill:none;stroke:#5C8D00;stroke-linecap:round;stroke-miterlimit:10;" d="M136.366,244.212
						c0,0,4.036,8.154,1.34,12.541"/>
					<path style="fill:none;stroke:#5C8D00;stroke-linecap:round;stroke-miterlimit:10;" d="M103.119,207.352
						c0,0,10.716,16.238,8.144,22.706"/>
					<path style="fill:none;stroke:#5C8D00;stroke-linecap:round;stroke-miterlimit:10;" d="M157.227,284.195
						c0,0,6.746-7.428,4.725-14.53"/>
				</g>
				<g>
					<path style="fill:#003D01;" d="M163.667,208.988c-15.009-6.287-18.826-20.853-23.784-34.774
						c-3.234-9.081-0.549-1.542-3.784-10.623c0,0-14.076,5.013-14.076,5.013c3.234,9.081,0.549,1.543,3.784,10.623
						c4.958,13.921,11.208,27.621,3.552,41.979c-3.435,6.443-2.305,14.624,0.066,21.281c4.218,11.844,37.769,106.047,37.769,106.047
						l23.822-8.484l23.822-8.484c0,0-33.551-94.204-37.769-106.048C174.697,218.862,170.402,211.809,163.667,208.988z"/>
					
						<rect x="116.772" y="152.214" transform="matrix(0.942 -0.3355 0.3355 0.942 -46.1265 51.7343)" style="fill:#C2895E;" width="19.781" height="14.298"/>
					
						<rect x="143.478" y="237.111" transform="matrix(0.942 -0.3355 0.3355 0.942 -83.3484 72.7122)" style="fill:#FF8789;" width="50.575" height="80.936"/>
				</g>
				<g>
					<path style="fill:#FFFFFF;" d="M159.892,248.531c-0.89-0.764-1.851-1.426-2.862-1.988c-2.255-1.254-4.759-1.988-7.315-2.118
						c-1.189-0.06-2.385,0.003-3.573,0.212c-1.43,0.252-2.845,0.698-4.207,1.367c-0.806,0.396-1.544,0.863-2.25,1.362
						c-0.972,0.686-1.847,1.46-2.622,2.308c-0.955,1.045-1.769,2.19-2.413,3.418c-0.519,0.99-0.933,2.027-1.24,3.096
						c-0.558,1.938-0.751,3.97-0.577,5.994c0.096,1.123,0.31,2.238,0.643,3.335c0.429,1.414,1.036,2.795,1.874,4.094l0.355,0.551
						l1.845,2.863l0.172,0.267c0.972,1.508,2.983,1.943,4.492,0.971h0c1.508-0.972,1.943-2.983,0.971-4.492l-1.274-1.977
						l-0.946-1.467c-0.306-0.474-0.551-0.97-0.766-1.473c-0.304-0.712-0.52-1.445-0.648-2.189c-0.195-1.139-0.198-2.295,0.001-3.417
						c0.103-0.583,0.268-1.153,0.473-1.709c0.386-1.047,0.941-2.034,1.669-2.908c0.523-0.629,1.137-1.195,1.827-1.691
						c0.53-0.38,1.1-0.722,1.724-1.004c0.514-0.232,1.039-0.407,1.569-0.54c1.005-0.253,2.029-0.332,3.04-0.255
						c1.288,0.098,2.549,0.451,3.716,1.026c0.677,0.334,1.321,0.741,1.919,1.219c0.881,0.703,1.663,1.549,2.295,2.529l0.098,0.152
						l2.879,4.467l2.042,3.168l3.586,5.563l2.042,3.167l3.586,5.564l2.042,3.168l3.586,5.564l2.042,3.168l3.585,5.563l2.042,3.168
						l3.586,5.564l2.042,3.167l1.932,2.998c0.972,1.508,2.983,1.943,4.492,0.971h0c1.508-0.972,1.943-2.983,0.971-4.492
						l-4.445-6.896l-2.038-3.161l-3.59-5.57l-2.037-3.161l-3.59-5.57l-2.038-3.161l-3.59-5.57l-2.038-3.161l-3.59-5.57l-2.037-3.161
						l-3.59-5.57l-2.037-3.161l-0.548-0.85C162.249,250.846,161.136,249.599,159.892,248.531z"/>
					<path style="fill:#F80010;" d="M191.18,297.623l-2.281,6.568l2.042,3.167c0,0,0.001,0,0.001,0
						c0.301-0.194,0.541-0.487,0.669-0.85l2.281-6.568l-2.038-3.161C191.552,296.973,191.307,297.259,191.18,297.623z"/>
					<path style="fill:#F80010;" d="M185.552,288.891l-2.281,6.568l2.042,3.168c0,0,0.001,0,0.001,0
						c0.301-0.194,0.542-0.487,0.669-0.85l2.281-6.568l-2.037-3.161C185.925,288.241,185.68,288.528,185.552,288.891z"/>
					<path style="fill:#F80010;" d="M179.925,280.161l-2.281,6.568l2.042,3.168c0,0,0.001,0,0.001-0.001
						c0.301-0.194,0.541-0.487,0.668-0.85l2.281-6.568l-2.038-3.161C180.298,279.51,180.052,279.797,179.925,280.161z"/>
					<path style="fill:#F80010;" d="M174.298,271.429l-2.281,6.568l2.042,3.168c0,0,0.001,0,0.001-0.001
						c0.301-0.194,0.541-0.487,0.669-0.85l2.281-6.568l-2.038-3.161C174.67,270.779,174.425,271.065,174.298,271.429z"/>
					<path style="fill:#F80010;" d="M169.1,271.582l2.281-6.568l-2.037-3.161c-0.301,0.194-0.547,0.48-0.674,0.844l-2.281,6.568
						l2.042,3.167c0,0,0.001,0,0.001,0C168.733,272.239,168.973,271.946,169.1,271.582z"/>
					<path style="fill:#F80010;" d="M163.473,262.852l2.281-6.568l-2.037-3.161c-0.301,0.194-0.547,0.48-0.674,0.844l-2.281,6.568
						l2.042,3.168c0,0,0.001,0,0.001-0.001C163.106,263.508,163.346,263.215,163.473,262.852z"/>
					<path style="fill:#F80010;" d="M159.892,248.531c-0.89-0.764-1.851-1.426-2.862-1.988c-0.098,0.16-0.184,0.33-0.224,0.524
						l-1.315,6.32c0.881,0.703,1.663,1.549,2.295,2.529l0.098,0.152c0.314-0.234,0.558-0.565,0.644-0.978L159.892,248.531z"/>
					<path style="fill:#F80010;" d="M153.46,250.704l-3.744-6.279c-1.189-0.06-2.385,0.003-3.573,0.212
						c0.027,0.221,0.097,0.44,0.218,0.643l3.496,5.862c1.288,0.098,2.549,0.451,3.716,1.026
						C153.756,251.705,153.735,251.166,153.46,250.704z"/>
					<path style="fill:#F80010;" d="M145.977,250.447l-6.291-3.081c-0.972,0.686-1.847,1.46-2.622,2.308
						c0.124,0.123,0.264,0.233,0.43,0.314l6.03,2.953c0.53-0.38,1.1-0.722,1.724-1.004c0.514-0.232,1.039-0.407,1.569-0.54
						C146.678,250.997,146.387,250.648,145.977,250.447z"/>
					<path style="fill:#F80010;" d="M134.65,253.092c-0.519,0.99-0.933,2.027-1.24,3.096c0.069,0.023,0.126,0.069,0.199,0.083
						l6.417,1.269c0.386-1.047,0.941-2.034,1.669-2.908c-0.183-0.128-0.391-0.223-0.624-0.269L134.65,253.092z"/>
					<path style="fill:#F80010;" d="M132.833,262.182c0.096,1.123,0.31,2.238,0.643,3.335c0.098-0.026,0.195-0.059,0.29-0.104
						l5.785-2.747c-0.195-1.139-0.198-2.295,0.001-3.417c-0.284-0.025-0.578,0.016-0.854,0.148L132.833,262.182z"/>
					<path style="fill:#F80010;" d="M139.678,265.28l-3.973,4.882l1.845,2.863c0.143-0.092,0.275-0.208,0.388-0.348l3.973-4.882
						l-0.946-1.467c-0.306-0.474-0.551-0.97-0.766-1.473C140.004,264.957,139.825,265.098,139.678,265.28z"/>
				</g>
				<g>
					<path style="fill:#FFFFFF;" d="M214.772,195.604c0.468-1.191,1.057-2.32,1.745-3.378c1.535-2.36,3.574-4.345,5.973-5.775
						c1.115-0.665,2.302-1.215,3.554-1.619c1.508-0.487,3.1-0.779,4.754-0.829c0.979-0.029,1.929,0.045,2.864,0.165
						c1.287,0.166,2.526,0.465,3.707,0.888c1.454,0.52,2.823,1.209,4.071,2.065c1.006,0.69,1.934,1.479,2.776,2.352
						c1.527,1.584,2.749,3.445,3.615,5.485c0.48,1.132,0.844,2.317,1.082,3.544c0.308,1.582,0.427,3.223,0.283,4.904l-0.061,0.713
						l-0.318,3.702l-0.03,0.346c-0.168,1.951-1.885,3.396-3.836,3.228h0c-1.951-0.168-3.396-1.885-3.228-3.836l0.22-2.556
						l0.163-1.897c0.053-0.614,0.036-1.216-0.013-1.811c-0.07-0.842-0.236-1.659-0.492-2.441c-0.393-1.197-0.98-2.314-1.745-3.295
						c-0.397-0.509-0.847-0.974-1.328-1.406c-0.906-0.812-1.945-1.481-3.094-1.953c-0.826-0.339-1.706-0.573-2.625-0.698
						c-0.705-0.096-1.429-0.135-2.175-0.088c-0.614,0.039-1.209,0.138-1.788,0.28c-1.099,0.269-2.126,0.716-3.061,1.305
						c-1.192,0.752-2.228,1.736-3.06,2.886c-0.483,0.668-0.896,1.389-1.229,2.154c-0.49,1.127-0.813,2.343-0.922,3.61l-0.017,0.196
						l-0.497,5.776l-0.352,4.096l-0.618,7.194l-0.352,4.096l-0.618,7.195l-0.352,4.096l-0.618,7.195l-0.352,4.096l-0.618,7.194
						l-0.352,4.096l-0.618,7.195l-0.352,4.096l-0.333,3.878c-0.168,1.951-1.885,3.396-3.836,3.229h0
						c-1.951-0.168-3.396-1.885-3.228-3.836l0.767-8.918l0.351-4.088l0.619-7.203l0.351-4.088l0.619-7.203l0.351-4.088l0.619-7.203
						l0.351-4.088l0.619-7.203l0.351-4.088l0.619-7.203l0.351-4.088l0.094-1.099C213.68,199.04,214.118,197.268,214.772,195.604z"/>
					<path style="fill:#F80010;" d="M209.655,258.91l5.551,5.169l-0.352,4.096c0,0-0.001,0-0.001,0
						c-0.389-0.034-0.77-0.193-1.078-0.479l-5.551-5.169l0.351-4.088C208.964,258.472,209.346,258.623,209.655,258.91z"/>
					<path style="fill:#F80010;" d="M210.625,247.618l5.551,5.169l-0.352,4.096c-0.001,0-0.001,0-0.001,0
						c-0.389-0.033-0.77-0.193-1.078-0.478l-5.551-5.17l0.351-4.088C209.935,247.181,210.317,247.332,210.625,247.618z"/>
					<path style="fill:#F80010;" d="M211.596,236.327l5.551,5.169l-0.352,4.096c-0.001,0-0.001,0-0.001,0
						c-0.389-0.033-0.77-0.193-1.078-0.479l-5.551-5.169l0.351-4.088C210.905,235.89,211.288,236.041,211.596,236.327z"/>
					<path style="fill:#F80010;" d="M212.567,225.036l5.551,5.169l-0.352,4.096c0,0-0.001,0-0.001,0
						c-0.389-0.033-0.77-0.193-1.078-0.479l-5.551-5.169l0.351-4.088C211.876,224.598,212.258,224.75,212.567,225.036z"/>
					<path style="fill:#F80010;" d="M217.656,222.531l-5.551-5.169l0.351-4.088c0.39,0.033,0.772,0.184,1.081,0.47l5.551,5.169
						l-0.352,4.096c0,0-0.001,0-0.001,0C218.346,222.976,217.964,222.817,217.656,222.531z"/>
					<path style="fill:#F80010;" d="M218.627,211.241l-5.551-5.169l0.351-4.088c0.39,0.033,0.772,0.184,1.08,0.471l5.551,5.169
						l-0.352,4.096c-0.001,0-0.001,0-0.001,0C219.316,211.686,218.935,211.527,218.627,211.241z"/>
					<path style="fill:#F80010;" d="M214.772,195.604c0.468-1.191,1.057-2.32,1.745-3.378c0.176,0.104,0.346,0.224,0.483,0.391
						l4.493,5.423c-0.49,1.127-0.813,2.343-0.922,3.61l-0.017,0.196c-0.422-0.065-0.827-0.26-1.12-0.615L214.772,195.604z"/>
					<path style="fill:#F80010;" d="M222.084,194.417l0.406-7.966c1.115-0.665,2.302-1.215,3.554-1.619
						c0.087,0.227,0.131,0.474,0.118,0.731L225.783,193c-1.192,0.752-2.228,1.736-3.06,2.886
						C222.309,195.534,222.054,195.003,222.084,194.417z"/>
					<path style="fill:#F80010;" d="M229.168,190.351l4.494-6.182c1.287,0.166,2.526,0.465,3.707,0.888
						c-0.057,0.182-0.136,0.359-0.255,0.522l-4.307,5.925c-0.705-0.096-1.429-0.135-2.175-0.088
						c-0.614,0.039-1.209,0.138-1.788,0.28C228.773,191.238,228.875,190.754,229.168,190.351z"/>
					<path style="fill:#F80010;" d="M241.44,187.121c1.006,0.69,1.934,1.479,2.776,2.352c-0.055,0.058-0.086,0.13-0.15,0.182
						l-5.54,4.499c-0.906-0.812-1.945-1.481-3.094-1.953c0.111-0.216,0.264-0.415,0.464-0.578L241.44,187.121z"/>
					<path style="fill:#F80010;" d="M247.83,194.958c0.48,1.132,0.844,2.317,1.082,3.544c-0.108,0.025-0.218,0.043-0.332,0.048
						l-6.98,0.304c-0.393-1.197-0.98-2.314-1.745-3.295c0.261-0.169,0.566-0.279,0.899-0.293L247.83,194.958z"/>
					<path style="fill:#F80010;" d="M242.811,201.439l6.323,2.68l-0.318,3.702c-0.185-0.016-0.371-0.06-0.551-0.137l-6.323-2.68
						l0.163-1.897c0.053-0.614,0.036-1.216-0.013-1.811C242.332,201.293,242.576,201.339,242.811,201.439z"/>
				</g>
				<g>
					<g>
						<path style="fill:#80B616;" d="M314.75,255.142c-2.87-7.035,2.633-14.449,2.633-14.449s-9.061,3.441-16.046-0.526
							c0,0-0.836,10.561-11.714,8.731c0,0-0.39,8.7-9.43,11.871c0,0-1.593,8.832-7.449,13.198
							c5.857-4.366,15.662-4.029,15.662-4.029c5.207-7.449,14.631-6.064,14.631-6.064
							C303.239,253.784,314.75,255.142,314.75,255.142z"/>
						<g>
							
								<line style="fill:none;stroke:#417300;stroke-linecap:round;stroke-miterlimit:10;" x1="316.275" y1="241.519" x2="272.744" y2="273.966"/>
						</g>
					</g>
				</g>
				<g>
					<g>
						<path style="fill:#80B616;" d="M392.212,217.979c-5.67-5.906-3.186-15.599-3.186-15.599s-7.608,7.145-16.13,5.997
							c0,0,3.409,10.959-8.117,13.543c0,0,3.104,8.907-4.592,15.771c0,0,1.964,9.528-2.094,16.3
							c4.059-6.772,13.921-10.421,13.921-10.421c2.177-9.608,12.081-12.048,12.081-12.048
							C380.247,221.296,392.212,217.979,392.212,217.979z"/>
						<g>
							
								<line style="fill:none;stroke:#417300;stroke-linecap:round;stroke-miterlimit:10;" x1="388.258" y1="203.661" x2="358.093" y2="253.991"/>
						</g>
					</g>
				</g>
				<g>
					<g>
						<path style="fill:#80B616;" d="M402.891,250.678c0.549-7.578,8.77-11.782,8.77-11.782s-9.647-0.936-14.147-7.59
							c0,0-5.434,9.094-14.372,2.629c0,0-4.21,7.624-13.717,6.455c0,0-5.345,7.209-12.531,8.523
							c7.186-1.314,15.824,3.337,15.824,3.337c7.971-4.366,15.803,1.056,15.803,1.056
							C393.177,244.355,402.891,250.678,402.891,250.678z"/>
						<g>
							
								<line style="fill:none;stroke:#417300;stroke-linecap:round;stroke-miterlimit:10;" x1="410.301" y1="239.145" x2="356.893" y2="248.914"/>
						</g>
					</g>
				</g>
				<g>
					<path style="fill:none;stroke:#5C8D00;stroke-linecap:round;stroke-miterlimit:10;" d="M77.612,259.749
						c0,0,39.711,4.977,77.559,40.695"/>
					<path style="fill:none;stroke:#5C8D00;stroke-linecap:round;stroke-miterlimit:10;" d="M80.763,266.789
						c0,0,6.848-1.022,9.766-4.075"/>
					<path style="fill:none;stroke:#5C8D00;stroke-linecap:round;stroke-miterlimit:10;" d="M81.749,254.698
						c0,0,4.253,3.528,5.547,7.113"/>
					<path style="fill:none;stroke:#5C8D00;stroke-linecap:round;stroke-miterlimit:10;" d="M86.785,270.128
						c0,0,10.139-1.218,12.742-4.436"/>
					<path style="fill:none;stroke:#5C8D00;stroke-linecap:round;stroke-miterlimit:10;" d="M97.574,273.869
						c0,0,6.037-0.365,10.258-4.842"/>
					<path style="fill:none;stroke:#5C8D00;stroke-linecap:round;stroke-miterlimit:10;" d="M89.826,256.696
						c0,0,4.407,2.631,6.17,7.749"/>
					<path style="fill:none;stroke:#5C8D00;stroke-linecap:round;stroke-miterlimit:10;" d="M98.57,257.489
						c0.286,0.234,5.443,4.881,6.44,10.342"/>
					<path style="fill:none;stroke:#5C8D00;stroke-linecap:round;stroke-miterlimit:10;" d="M108.601,277.514
						c0,0,6.373,0.422,9.978-3.317"/>
					<path style="fill:none;stroke:#5C8D00;stroke-linecap:round;stroke-miterlimit:10;" d="M105.987,261.653
						c0.286,0.234,6.507,4.13,8.372,10.397"/>
					<path style="fill:none;stroke:#5C8D00;stroke-linecap:round;stroke-miterlimit:10;" d="M115.45,265.263
						c0.494,0.564,5.811,5.674,6.078,10.531"/>
					<path style="fill:none;stroke:#5C8D00;stroke-linecap:round;stroke-miterlimit:10;" d="M128.158,279.675
						c0,0,1.939-4.168-1.098-10.636"/>
					<path style="fill:none;stroke:#5C8D00;stroke-linecap:round;stroke-miterlimit:10;" d="M116.101,282.421
						c0,0,11.052,2.742,14.368-1.293"/>
					<path style="fill:none;stroke:#5C8D00;stroke-linecap:round;stroke-miterlimit:10;" d="M134.609,283.869
						c0,0,1.483-4.566,0.417-8.305"/>
					<path style="fill:none;stroke:#5C8D00;stroke-linecap:round;stroke-miterlimit:10;" d="M128.098,289.092
						c0,0,9.991,2.178,12.526-0.912"/>
					<path style="fill:none;stroke:#5C8D00;stroke-linecap:round;stroke-miterlimit:10;" d="M134.342,295.85
						c0,0,8.68-0.29,10.286-4.584"/>
					<path style="fill:none;stroke:#5C8D00;stroke-linecap:round;stroke-miterlimit:10;" d="M142.758,289.734
						c0,0,3.423-4.835-1.105-13.499"/>
					<path style="fill:none;stroke:#5C8D00;stroke-linecap:round;stroke-miterlimit:10;" d="M142.012,300.487
						c0,0,7.088,1.462,10.035-2.917"/>
					<path style="fill:none;stroke:#5C8D00;stroke-linecap:round;stroke-miterlimit:10;" d="M149.361,295.209
						c0,0,3.475-3.467,1.155-9.188"/>
					<path style="fill:none;stroke:#5C8D00;stroke-linecap:round;stroke-miterlimit:10;" d="M104.314,275.749
						c0,0,7.626-2.402,7.382-4.976"/>
					<path style="fill:none;stroke:#5C8D00;stroke-linecap:round;stroke-miterlimit:10;" d="M117.255,279.042
						c0,0,5.093,0.989,7.618-1.344"/>
					<path style="fill:none;stroke:#5C8D00;stroke-linecap:round;stroke-miterlimit:10;" d="M138.379,279.265
						c0.396,0.483,2.238,4.96,0.581,7.682"/>
					<path style="fill:none;stroke:#5C8D00;stroke-linecap:round;stroke-miterlimit:10;" d="M122.545,270.209
						c0,0,4.836,4.746,4.015,8.491"/>
					<path style="fill:none;stroke:#5C8D00;stroke-linecap:round;stroke-miterlimit:10;" d="M90.134,252.431
						c0,0,11.514,8.794,11.289,13.973"/>
					<path style="fill:none;stroke:#5C8D00;stroke-linecap:round;stroke-miterlimit:10;" d="M147.011,293.217
						c0,0,2.925-6.876-0.236-11.376"/>
				</g>
				<g>
					<g>
						<path style="fill:#80B616;" d="M107.808,273.566c-4.579,7.183-14.928,6.95-14.928,6.95s9.018,6.063,9.912,15.025
							c0,0,10.206-6.076,15.577,5.064c0,0,8.215-5.278,16.971,0.941c0,0,9.114-4.263,16.903-1.731
							c-7.789-2.532-13.831-11.722-13.831-11.722c-10.189,0.06-15.026-9.461-15.026-9.461
							C114.022,284.979,107.808,273.566,107.808,273.566z"/>
						<g>
							
								<line style="fill:none;stroke:#417300;stroke-linecap:round;stroke-miterlimit:10;" x1="94.354" y1="280.994" x2="152.243" y2="299.813"/>
						</g>
					</g>
				</g>
				<g>
					<path style="fill:#7FB613;" d="M205.623,238.376l14.342-5.108c2.248-0.8,2.875-3.483,1.13-4.828l-11.138-8.584l-11.138-8.584
						c-1.745-1.345-4.555-0.345-5.057,1.801l-3.204,13.692l-3.204,13.692c-0.502,2.146,1.68,3.827,3.927,3.027L205.623,238.376z"/>
					<path style="fill:#5C8C05;" d="M232.344,246.406l-13.979-10.774l-1.592-1.227l-11.149,3.971l-11.149,3.971l-0.458,1.957
						l-4.022,17.185c-0.63,2.693,2.108,4.803,4.929,3.799l18.001-6.411l18.001-6.411
						C233.746,251.461,234.534,248.094,232.344,246.406z"/>
					<path style="fill:#457100;" d="M241.815,264.852l-14.434-11.124l-14.456,5.149l-14.456,5.149l-4.153,17.744
						c-0.707,3.021,2.364,5.388,5.529,4.261l20.19-7.191l20.19-7.191C243.388,270.522,244.272,266.746,241.815,264.852z"/>
					<path style="fill:#4B0E09;" d="M229.051,304.157L229.051,304.157c-2.089,0.744-4.385-0.346-5.129-2.435l-7.67-21.536
						l7.564-2.694l7.67,21.536C232.23,301.117,231.14,303.413,229.051,304.157z"/>
					<g>
						<path style="fill:#FFFFFF;" d="M198.369,233.184c0.292,0.819-0.136,1.72-0.955,2.012c-0.819,0.292-1.72-0.136-2.012-0.955
							c-0.292-0.819,0.136-1.72,0.955-2.011C197.176,231.937,198.077,232.365,198.369,233.184z"/>
						<path style="fill:#FFFFFF;" d="M206.056,269.099c0.292,0.819-0.136,1.72-0.955,2.012c-0.819,0.292-1.72-0.136-2.011-0.955
							c-0.292-0.819,0.136-1.72,0.955-2.011C204.863,267.852,205.764,268.28,206.056,269.099z"/>
						<path style="fill:#FFFFFF;" d="M215.908,250.596c0.292,0.819-0.136,1.72-0.955,2.011c-0.819,0.292-1.72-0.136-2.012-0.955
							c-0.292-0.819,0.136-1.72,0.955-2.011C214.716,249.35,215.617,249.777,215.908,250.596z"/>
						<path style="fill:#FFFFFF;" d="M205.457,248.395c0.292,0.819-0.136,1.72-0.955,2.011c-0.819,0.292-1.72-0.136-2.012-0.955
							c-0.292-0.819,0.136-1.72,0.955-2.011C204.265,247.148,205.166,247.576,205.457,248.395z"/>
						<path style="fill:#FFFFFF;" d="M217.285,240.84c0.292,0.819-0.136,1.72-0.955,2.012c-0.819,0.292-1.72-0.136-2.012-0.955
							c-0.292-0.819,0.136-1.72,0.955-2.011C216.092,239.593,216.993,240.021,217.285,240.84z"/>
						<path style="fill:#FFFFFF;" d="M204.506,223.274c0.292,0.819-0.136,1.72-0.955,2.011c-0.819,0.292-1.72-0.136-2.012-0.955
							c-0.292-0.819,0.136-1.72,0.955-2.011C203.313,222.027,204.214,222.454,204.506,223.274z"/>
						<path style="fill:#FFFFFF;" d="M234.107,269.302c0.292,0.819-0.136,1.72-0.955,2.011c-0.819,0.292-1.72-0.136-2.012-0.955
							c-0.292-0.819,0.136-1.72,0.955-2.012C232.915,268.056,233.815,268.483,234.107,269.302z"/>
						<path style="fill:#FFFFFF;" d="M214.234,273.037c0.292,0.819-0.136,1.72-0.955,2.011c-0.819,0.292-1.72-0.136-2.011-0.955
							c-0.292-0.819,0.136-1.72,0.955-2.012C213.042,271.791,213.942,272.218,214.234,273.037z"/>
						<path style="fill:#FFFFFF;" d="M224.952,262.369c0.292,0.819-0.136,1.72-0.955,2.012c-0.819,0.292-1.72-0.136-2.011-0.955
							c-0.292-0.819,0.136-1.72,0.955-2.011C223.76,261.122,224.661,261.55,224.952,262.369z"/>
					</g>
				</g>
				<g>
					
						<ellipse transform="matrix(0.6625 -0.749 0.749 0.6625 -126.5954 286.777)" style="fill:#FFFFFF;" cx="254.966" cy="283.883" rx="29.885" ry="29.885"/>
					<path style="fill:#920300;" d="M237.375,259.72c3.366-2.452,7.165-4.132,11.131-5.009c2.517,3.649,5.589,7,9.334,9.904
						c12.487,9.68,20.569,19.195,25.814,27.645c-0.991,3.397-2.6,6.675-4.862,9.664c-0.674,0.89-1.391,1.727-2.14,2.52
						c-4.06-8.419-11.713-19.141-26.164-30.343C245.05,269.885,240.752,265.002,237.375,259.72z"/>
					<path style="fill:#920300;" d="M225.218,281.031c0.479-5.048,2.253-10.03,5.384-14.438c3.005,6.258,7.263,11.972,13.195,16.57
						c12.167,9.432,20.152,18.708,25.407,26.994c-3.762,2.035-7.897,3.225-12.11,3.527c-4.541-6.455-11.107-13.64-20.649-21.037
						C231.968,289.179,228.271,285.255,225.218,281.031z"/>
					<g>
						<g>
							<path style="fill:#E5E5E5;" d="M270.718,258.491l3.408-4.5l5.432,4.113l-3.497,4.618c-0.947-0.942-1.961-1.836-3.055-2.664
								C272.262,259.494,271.496,258.975,270.718,258.491z"/>
						</g>
					</g>
					<path style="fill:none;stroke:#000000;stroke-miterlimit:10;" d="M277.993,256.92c4.297-0.318,29.203-4.732,24.308-13.775
						c-4.895-9.044-23.868,7.134-25.968,12.519"/>
				</g>
				<g>
					
						<ellipse transform="matrix(0.2979 -0.9546 0.9546 0.2979 -135.421 394.6535)" style="fill:#D80001;" cx="200.568" cy="289.384" rx="27.957" ry="27.957"/>
					<g>
						<g>
							<g>
								<path style="fill:#E5E5E5;" d="M190.988,263.124l-2.262-4.772l-5.76,2.73l2.321,4.896c1.047-0.682,2.146-1.307,3.307-1.857
									C189.384,263.747,190.183,263.418,190.988,263.124z"/>
							</g>
						</g>
					</g>
					<path style="fill:none;stroke:#000000;stroke-miterlimit:10;" d="M184.626,260.296c-3.875-1.111-25.841-9.906-19.632-17.254
						c6.208-7.348,20.497,11.088,21.392,16.42"/>
					<path style="fill:#FFDE1D;" d="M173.212,283.637c-0.406,1.927-0.61,3.901-0.601,5.89c7.408,0.626,16.508-1.115,25.48-5.368
						s16.081-10.195,20.287-16.326c-1.534-1.266-3.191-2.359-4.94-3.264c-4.294,5.132-10.57,9.966-18.195,13.581
						C187.619,281.764,179.904,283.562,173.212,283.637z"/>
					<path style="fill:#FFDE1D;" d="M179.285,307.513c2.226,2.617,4.885,4.756,7.816,6.365c6.793-0.001,14.681-1.801,22.473-5.494
						c7.791-3.693,14.179-8.66,18.48-13.918c0.611-3.287,0.638-6.7,0.022-10.08c-4.001,6.708-11.567,13.351-21.35,17.989
						C196.943,307.011,187.01,308.662,179.285,307.513z"/>
				</g>
				<circle style="fill:#A50008;" cx="138.043" cy="283.895" r="7.66"/>
				<circle style="fill:#A50008;" cx="348.429" cy="243.687" r="7.66"/>
				<path style="fill:#D80001;" d="M133.824,289.009c0,3.96-3.21,7.17-7.17,7.17c-3.96,0-7.17-3.21-7.17-7.17s3.21-7.17,7.17-7.17
					C130.614,281.838,133.824,285.049,133.824,289.009z"/>
				<g>
					<path style="fill:none;stroke:#5C8D00;stroke-linecap:round;stroke-miterlimit:10;" d="M423.045,210.223
						c0,0-38.617,10.51-71.068,51.193"/>
					<path style="fill:none;stroke:#5C8D00;stroke-linecap:round;stroke-miterlimit:10;" d="M420.914,217.635
						c0,0-6.924-0.049-10.242-2.661"/>
					<path style="fill:none;stroke:#5C8D00;stroke-linecap:round;stroke-miterlimit:10;" d="M418.239,205.804
						c0,0-3.715,4.09-4.492,7.822"/>
					<path style="fill:none;stroke:#5C8D00;stroke-linecap:round;stroke-miterlimit:10;" d="M415.421,221.789
						c0,0-10.21,0.219-13.239-2.601"/>
					<path style="fill:none;stroke:#5C8D00;stroke-linecap:round;stroke-miterlimit:10;" d="M405.265,227.009
						c0,0-6.028,0.487-10.837-3.352"/>
					<path style="fill:none;stroke:#5C8D00;stroke-linecap:round;stroke-miterlimit:10;" d="M410.523,208.917
						c0,0-3.993,3.224-5.019,8.539"/>
					<path style="fill:none;stroke:#5C8D00;stroke-linecap:round;stroke-miterlimit:10;" d="M401.977,210.931
						c-0.25,0.272-4.703,5.597-4.922,11.145"/>
					<path style="fill:none;stroke:#5C8D00;stroke-linecap:round;stroke-miterlimit:10;" d="M394.861,232.168
						c0,0-6.251,1.314-10.345-1.882"/>
					<path style="fill:none;stroke:#5C8D00;stroke-linecap:round;stroke-miterlimit:10;" d="M395.218,216.096
						c-0.25,0.272-5.862,5.004-6.827,11.47"/>
					<path style="fill:none;stroke:#5C8D00;stroke-linecap:round;stroke-miterlimit:10;" d="M386.357,221.001
						c-0.41,0.627-4.956,6.434-4.538,11.28"/>
					<path style="fill:none;stroke:#5C8D00;stroke-linecap:round;stroke-miterlimit:10;" d="M375.801,237.056
						c0,0-2.505-3.854-0.408-10.685"/>
					<path style="fill:none;stroke:#5C8D00;stroke-linecap:round;stroke-miterlimit:10;" d="M388.125,238.08
						c0,0-10.557,4.268-14.407,0.74"/>
					<path style="fill:none;stroke:#5C8D00;stroke-linecap:round;stroke-miterlimit:10;" d="M370.004,242.115
						c0,0-2.11-4.312-1.581-8.164"/>
					<path style="fill:none;stroke:#5C8D00;stroke-linecap:round;stroke-miterlimit:10;" d="M377.184,246.371
						c0,0-9.586,3.561-12.53,0.858"/>
					<path style="fill:none;stroke:#5C8D00;stroke-linecap:round;stroke-miterlimit:10;" d="M371.953,253.939
						c0,0-8.635,0.933-10.828-3.092"/>
					<path style="fill:none;stroke:#5C8D00;stroke-linecap:round;stroke-miterlimit:10;" d="M362.761,249.067
						c0,0-4.068-4.306-0.804-13.521"/>
					<path style="fill:none;stroke:#5C8D00;stroke-linecap:round;stroke-miterlimit:10;" d="M365.01,259.609
						c0,0-6.812,2.443-10.345-1.478"/>
					<path style="fill:none;stroke:#5C8D00;stroke-linecap:round;stroke-miterlimit:10;" d="M356.992,255.416
						c0,0-3.928-2.944-2.435-8.935"/>
					<path style="fill:none;stroke:#5C8D00;stroke-linecap:round;stroke-miterlimit:10;" d="M398.857,229.818
						c0,0-7.888-1.307-8.009-3.889"/>
					<path style="fill:none;stroke:#5C8D00;stroke-linecap:round;stroke-miterlimit:10;" d="M386.507,234.897
						c0,0-4.904,1.695-7.731-0.259"/>
					<path style="fill:none;stroke:#5C8D00;stroke-linecap:round;stroke-miterlimit:10;" d="M365.624,238.087
						c-0.324,0.534-1.519,5.226,0.505,7.687"/>
					<path style="fill:none;stroke:#5C8D00;stroke-linecap:round;stroke-miterlimit:10;" d="M380.028,226.895
						c0,0-4.121,5.378-2.781,8.971"/>
					<path style="fill:none;stroke:#5C8D00;stroke-linecap:round;stroke-miterlimit:10;" d="M409.618,204.738
						c0,0-10.164,10.326-9.213,15.421"/>
					<path style="fill:none;stroke:#5C8D00;stroke-linecap:round;stroke-miterlimit:10;" d="M359.039,253.114
						c0,0-3.862-6.397-1.365-11.296"/>
				</g>
				<circle style="fill:#D80001;" cx="367.887" cy="246.157" r="6.957"/>
			</g>
			<g>
				<path style="fill:#F4CD6E;" d="M320.225,264.388c-15.047,3.375-27.395,11.234-40.467,19.555
					c-24.291,15.461-49.407,31.446-92.62,19.148c-37.672-10.721-57.218-0.393-64.064,4.751l24.915,76.354h208.621l38.703-118.61
					C385.578,260.527,363.758,254.621,320.225,264.388z"/>
				<g>
					<g>
						<path style="fill:#F7C02F;" d="M140.624,300.721c1.624,6.915,3.141,13.852,4.642,20.792l4.381,20.845l4.154,20.891
							l1.997,10.462c0.63,3.495,1.293,6.983,1.893,10.483c-0.822-3.455-1.581-6.924-2.374-10.385l-2.27-10.406l-4.38-20.845
							l-4.153-20.892C143.172,314.694,141.844,307.719,140.624,300.721z"/>
					</g>
					<g>
						<path style="fill:#F7C02F;" d="M158.885,298.439c1.038,7.122,1.968,14.258,2.88,21.395l2.616,21.426l2.386,21.452
							l1.111,10.736c0.334,3.583,0.702,7.162,1.007,10.748c-0.529-3.56-0.994-7.128-1.493-10.691l-1.389-10.703l-2.614-21.426
							l-2.384-21.453C160.251,312.767,159.513,305.609,158.885,298.439z"/>
					</g>
					<g>
						<path style="fill:#F7C02F;" d="M176.125,300.433c0.693,6.966,1.277,13.939,1.845,20.914l1.579,20.932l1.349,20.949
							l0.592,10.48c0.161,3.496,0.356,6.989,0.487,10.487c-0.357-3.482-0.649-6.969-0.976-10.453l-0.871-10.461l-1.578-20.932
							l-1.347-20.949C176.798,314.415,176.407,307.428,176.125,300.433z"/>
					</g>
					<g>
						<path style="fill:#F7C02F;" d="M192.325,304.451c0.586,6.654,1.062,13.315,1.522,19.977
							c0.462,6.661,0.835,13.328,1.257,19.992l1.025,20.005l0.431,10.007c0.107,3.338,0.249,6.674,0.325,10.013
							c-0.303-3.327-0.542-6.657-0.815-9.985l-0.709-9.991l-1.255-19.992c-0.338-6.668-0.726-13.334-1.024-20.005
							C192.783,317.8,192.499,311.129,192.325,304.451z"/>
					</g>
					<g>
						<path style="fill:#F7C02F;" d="M210.164,307.359c0.206,6.403,0.303,12.806,0.383,19.209
							c0.082,6.403,0.075,12.806,0.117,19.209c-0.039,6.403-0.035,12.806-0.115,19.209l-0.139,9.605
							c-0.083,3.202-0.132,6.403-0.245,9.605c-0.113-3.202-0.162-6.403-0.245-9.605l-0.14-9.605
							c-0.08-6.403-0.076-12.806-0.115-19.209c0.042-6.403,0.034-12.806,0.117-19.209
							C209.861,320.165,209.958,313.762,210.164,307.359z"/>
					</g>
					<g>
						<path style="fill:#F7C02F;" d="M226.752,306.823c0.206,6.492,0.303,12.985,0.383,19.477
							c0.082,6.492,0.075,12.985,0.117,19.477l-0.115,19.477l-0.139,9.739c-0.083,3.246-0.132,6.493-0.245,9.739
							c-0.113-3.246-0.162-6.492-0.245-9.739l-0.139-9.739l-0.115-19.477c0.042-6.493,0.034-12.985,0.117-19.477
							C226.449,319.807,226.546,313.315,226.752,306.823z"/>
					</g>
					<g>
						<path style="fill:#F7C02F;" d="M244.384,303.091c-0.079,6.767-0.268,13.53-0.474,20.292
							c-0.203,6.762-0.496,13.521-0.74,20.281l-0.971,20.271l-0.567,10.132c-0.226,3.376-0.417,6.753-0.673,10.128
							c0.029-3.384,0.123-6.766,0.183-10.148l0.289-10.144l0.741-20.281c0.327-6.757,0.605-13.516,0.973-20.271
							C243.51,316.595,243.892,309.841,244.384,303.091z"/>
					</g>
					<g>
						<path style="fill:#F7C02F;" d="M264.053,293.558c-0.552,7.574-1.213,15.136-1.891,22.697l-2.156,22.671l-2.386,22.648
							l-1.275,11.316l-1.38,11.305l0.892-11.354l0.997-11.343l2.157-22.671l2.388-22.648
							C262.237,308.634,263.09,301.091,264.053,293.558z"/>
					</g>
					<g>
						<path style="fill:#F7C02F;" d="M282.453,282.23c-0.773,8.521-1.655,17.029-2.553,25.535l-2.818,25.505l-3.048,25.478
							l-1.605,12.73l-1.71,12.718l1.223-12.774l1.328-12.762l2.82-25.505l3.05-25.478
							C280.197,299.189,281.271,290.703,282.453,282.23z"/>
					</g>
					<g>
						<path style="fill:#F7C02F;" d="M299.764,272.049c-1.038,9.373-2.185,18.731-3.348,28.087l-3.612,28.052l-3.842,28.021
							l-2.002,14l-2.107,13.986l1.621-14.051l1.726-14.037l3.614-28.052l3.843-28.021
							C296.978,290.7,298.317,281.368,299.764,272.049z"/>
					</g>
					<g>
						<path style="fill:#F7C02F;" d="M320.225,264.388c-1.3,10.015-2.708,20.013-4.133,30.009l-4.397,29.969l-4.625,29.935
							l-2.394,14.955l-2.498,14.94l2.014-15.013l2.118-14.997l4.398-29.969l4.627-29.935
							C316.917,284.31,318.517,274.341,320.225,264.388z"/>
					</g>
					<g>
						<path style="fill:#F7C02F;" d="M339.077,260.895c-1.557,10.31-3.223,20.601-4.905,30.89l-5.167,30.845l-5.395,30.806
							l-2.778,15.389l-2.883,15.371l2.399-15.454l2.503-15.436l5.169-30.845l5.397-30.806
							C335.258,281.393,337.113,271.135,339.077,260.895z"/>
					</g>
					<g>
						<path style="fill:#F7C02F;" d="M333.231,384.195c2.042-10.431,4.19-20.838,6.355-31.242l6.616-31.186l6.842-31.137
							l3.501-15.551l3.604-15.529l-3.125,15.632l-3.229,15.61l-6.617,31.186l-6.844,31.137
							C338.013,363.485,335.676,373.852,333.231,384.195z"/>
					</g>
					<g>
						<path style="fill:#F7C02F;" d="M379.663,260.57c-2.548,10.355-5.203,20.682-7.873,31.005l-8.13,30.936l-8.354,30.877
							l-4.256,15.417l-4.358,15.39l3.885-15.516l3.987-15.489l8.132-30.936l8.356-30.876
							C373.875,281.096,376.716,270.819,379.663,260.57z"/>
					</g>
				</g>
				<path style="fill:#F7C02F;" d="M407.217,257.711c-2.169-1.61-4.758-3.196-7.815-4.658c-14.35-6.862-39.253-10.944-82.023-1.351
					c-17.265,3.874-31.162,12.719-44.602,21.273c-22.876,14.56-44.485,28.314-82.081,17.611
					c-37.675-10.721-60.536-2.473-71.797,4.46c-5.529,3.404-8.263,6.491-8.579,6.861c-2.336,2.726-2.02,6.829,0.706,9.165
					c1.226,1.051,2.73,1.564,4.227,1.564c1.832,0,3.653-0.771,4.938-2.271c0.04-0.046,0.961-1.082,2.883-2.526
					c6.846-5.143,26.392-15.471,64.064-4.751c43.213,12.298,68.329-3.688,92.62-19.148c13.072-8.32,25.42-16.18,40.467-19.555
					c43.534-9.767,65.354-3.861,75.088,1.198c1.761,0.915,3.13,1.802,4.157,2.564c2.881,2.142,6.953,1.538,9.093-1.345
					C410.702,263.923,410.1,259.852,407.217,257.711z"/>
				<g>
					<g>
						<path style="fill:#FF9804;" d="M341.131,247.48c-0.247,1.232-0.374,2.453-0.381,3.656c0.008,1.202,0.157,2.389,0.534,3.495
							c0.345,1.116,0.94,2.147,1.734,3.028c0.363,0.477,0.836,0.848,1.283,1.265c0.456,0.407,0.988,0.718,1.475,1.131
							c-0.584-0.213-1.195-0.416-1.752-0.725c-0.538-0.339-1.112-0.653-1.565-1.125c-0.519-0.405-0.882-0.957-1.288-1.476
							c-0.319-0.573-0.647-1.151-0.837-1.784c-0.405-1.252-0.518-2.58-0.361-3.855C340.131,249.817,340.494,248.572,341.131,247.48z
							"/>
					</g>
					<g>
						<path style="fill:#FF9804;" d="M356.893,245.774c-0.741,1.005-1.33,2.071-1.738,3.188c-0.392,1.117-0.647,2.276-0.617,3.446
							c-0.019,0.291,0.033,0.583,0.044,0.875c0.005,0.294,0.059,0.582,0.121,0.87c0.059,0.288,0.087,0.585,0.171,0.869
							c0.093,0.282,0.177,0.567,0.258,0.856c0.157,0.579,0.442,1.116,0.647,1.693c0.258,0.552,0.552,1.091,0.799,1.675
							c-0.426-0.453-0.839-0.931-1.225-1.431c-0.317-0.542-0.711-1.056-0.947-1.652c-0.569-1.152-0.827-2.453-0.867-3.755
							c-0.012-1.309,0.323-2.611,0.905-3.759C355.023,247.502,355.858,246.486,356.893,245.774z"/>
					</g>
					<g>
						<path style="fill:#FF9804;" d="M373.718,246.731c-1.032,0.757-1.962,1.605-2.824,2.487c-0.846,0.897-1.6,1.864-2.162,2.926
							c-0.601,1.046-0.915,2.219-1.054,3.415c-0.171,1.209,0.022,2.44,0.208,3.713c-0.551-1.138-1.034-2.409-0.988-3.749
							c-0.018-1.324,0.302-2.682,0.951-3.849c0.641-1.17,1.507-2.197,2.515-3.026C371.367,247.815,372.501,247.148,373.718,246.731z
							"/>
					</g>
					<g>
						<path style="fill:#FF9804;" d="M388.391,249.55c-1.987,1.37-3.785,2.902-5.073,4.794c-0.672,0.927-1.111,1.986-1.429,3.082
							c-0.352,1.105-0.358,2.275-0.414,3.494c-0.354-1.146-0.582-2.411-0.35-3.651c0.183-1.236,0.644-2.456,1.366-3.485
							c0.717-1.031,1.606-1.927,2.614-2.639C386.11,250.435,387.211,249.858,388.391,249.55z"/>
					</g>
					<g>
						<path style="fill:#FF9804;" d="M113.826,298.627c1.647,1.871,3.476,3.469,5.56,4.658c1.031,0.606,2.121,1.116,3.263,1.503
							c1.135,0.428,2.326,0.667,3.551,0.962c-1.242,0.121-2.528,0.094-3.764-0.212c-1.251-0.252-2.444-0.757-3.552-1.389
							c-1.104-0.644-2.12-1.439-2.978-2.377C115.042,300.845,114.299,299.793,113.826,298.627z"/>
					</g>
					<g>
						<path style="fill:#FF9804;" d="M124.599,292.431c0.535,1.214,1.382,2.202,2.273,3.098c0.917,0.88,1.954,1.624,3.054,2.262
							c1.082,0.677,2.271,1.169,3.452,1.695l1.823,0.698c0.615,0.224,1.242,0.415,1.861,0.671c-0.663-0.033-1.318-0.131-1.984-0.196
							c-0.652-0.127-1.305-0.267-1.953-0.434c-1.278-0.391-2.546-0.869-3.707-1.573c-1.158-0.695-2.253-1.537-3.117-2.595
							C125.443,295.009,124.761,293.762,124.599,292.431z"/>
					</g>
					<g>
						<path style="fill:#FF9804;" d="M138.379,287.353c0.592,1.167,1.238,2.283,1.889,3.382c0.67,1.088,1.361,2.154,2.146,3.142
							c0.78,0.991,1.646,1.899,2.591,2.73c0.978,0.788,2.041,1.467,3.237,2.02c-1.297-0.175-2.579-0.657-3.703-1.394
							c-1.11-0.755-2.074-1.703-2.911-2.738C140.017,292.38,138.853,289.937,138.379,287.353z"/>
					</g>
					<g>
						<path style="fill:#FF9804;" d="M152.623,285.527c0.553,1.277,1.169,2.504,1.796,3.713c0.644,1.201,1.326,2.373,2.086,3.487
							c0.743,1.129,1.607,2.162,2.515,3.159c0.927,0.986,1.963,1.854,3.08,2.695c-1.296-0.495-2.554-1.192-3.617-2.129
							c-1.066-0.927-2.014-1.995-2.805-3.164C154.124,290.942,153.003,288.297,152.623,285.527z"/>
					</g>
					<g>
						<path style="fill:#FF9804;" d="M170.574,286.363c-0.131,1.267-0.126,2.515-0.058,3.743c0.088,1.228,0.279,2.438,0.616,3.604
							c0.309,1.174,0.777,2.303,1.381,3.365c0.574,1.087,1.339,2.061,2.122,3.074c-1.04-0.721-2.054-1.57-2.78-2.655
							c-0.418-0.507-0.686-1.106-1.011-1.675c-0.247-0.604-0.515-1.206-0.675-1.841
							C169.473,291.462,169.573,288.722,170.574,286.363z"/>
					</g>
					<g>
						<path style="fill:#FF9804;" d="M186.21,289.384c-0.356,2.344-0.53,4.636-0.382,6.921c0.05,1.142,0.204,2.276,0.432,3.401
							c0.199,1.137,0.558,2.232,0.878,3.385c-0.69-0.964-1.278-2.033-1.632-3.185c-0.224-0.564-0.314-1.161-0.465-1.747
							c-0.083-0.596-0.184-1.194-0.21-1.797c-0.061-1.204-0.005-2.415,0.228-3.594C185.281,291.592,185.636,290.432,186.21,289.384z
							"/>
					</g>
					<g>
						<path style="fill:#FF9804;" d="M200.458,292.895c-0.084,1.275-0.074,2.532-0.035,3.772c0.061,1.24,0.179,2.467,0.436,3.66
							c0.26,1.192,0.67,2.334,1.221,3.418c0.576,1.076,1.357,2.023,2.263,2.937c-1.125-0.59-2.186-1.427-2.928-2.528
							c-0.743-1.092-1.238-2.339-1.533-3.616C199.376,297.967,199.554,295.295,200.458,292.895z"/>
					</g>
					<g>
						<path style="fill:#FF9804;" d="M214.077,294.369c-0.175,1.365-0.151,2.718,0.006,4.027c0.179,1.307,0.552,2.573,1.177,3.702
							c0.129,0.298,0.307,0.567,0.495,0.83c0.188,0.262,0.344,0.55,0.576,0.78l0.64,0.738l0.732,0.657
							c0.236,0.232,0.493,0.44,0.774,0.619l0.817,0.584c0.557,0.38,1.172,0.666,1.753,1.053c-0.661-0.175-1.328-0.377-1.982-0.62
							c-0.611-0.327-1.291-0.565-1.839-1.019c-1.204-0.758-2.147-1.906-2.848-3.152c-0.678-1.269-1.043-2.697-1.07-4.111
							C213.274,297.045,213.527,295.636,214.077,294.369z"/>
					</g>
					<g>
						<path style="fill:#FF9804;" d="M227.98,293.558c0.107,1.363,0.404,2.674,0.823,3.914c0.439,1.234,1.058,2.389,1.893,3.362
							c0.185,0.264,0.413,0.489,0.648,0.708c0.235,0.218,0.445,0.465,0.716,0.643l0.77,0.59l0.843,0.494
							c0.276,0.179,0.568,0.33,0.876,0.449l0.911,0.407c0.618,0.26,1.272,0.417,1.914,0.679c-0.679-0.039-1.368-0.102-2.053-0.209
							c-0.659-0.197-1.369-0.293-1.993-0.626c-1.323-0.497-2.47-1.426-3.402-2.497c-0.915-1.098-1.559-2.413-1.871-3.783
							C227.737,296.323,227.699,294.901,227.98,293.558z"/>
					</g>
					<g>
						<path style="fill:#FF9804;" d="M240.959,290.028c0.667,1.226,1.462,2.344,2.315,3.389c0.87,1.032,1.839,1.967,2.923,2.735
							c1.065,0.794,2.255,1.416,3.525,1.844c1.26,0.479,2.606,0.687,3.991,0.907c-1.375,0.17-2.826,0.222-4.21-0.158
							c-0.712-0.119-1.364-0.43-2.039-0.681c-0.633-0.339-1.281-0.663-1.853-1.102C243.284,295.271,241.592,292.756,240.959,290.028
							z"/>
					</g>
					<g>
						<path style="fill:#FF9804;" d="M253.714,284.606c0.5,1.326,1.368,2.419,2.349,3.326c1,0.897,2.182,1.565,3.437,2.047
							c1.242,0.533,2.593,0.78,3.941,1.053l2.063,0.265c0.695,0.068,1.393,0.103,2.101,0.201c-0.695,0.128-1.4,0.191-2.109,0.289
							c-0.709,0.037-1.423,0.028-2.14,0.021c-1.424-0.123-2.869-0.341-4.224-0.9c-1.349-0.538-2.641-1.324-3.62-2.427
							C254.532,287.397,253.833,286.029,253.714,284.606z"/>
					</g>
					<g>
						<path style="fill:#FF9804;" d="M264.589,278.125c0.829,1.188,1.91,2.117,3.049,2.905c1.156,0.773,2.421,1.359,3.74,1.784
							l0.997,0.304l1.024,0.218c0.676,0.191,1.384,0.207,2.078,0.34c0.701,0.075,1.41,0.109,2.122,0.182
							c0.713,0.03,1.429,0.025,2.158,0.085c-0.704,0.166-1.422,0.268-2.141,0.405c-0.724,0.044-1.455,0.117-2.187,0.107
							c-1.463-0.045-2.944-0.218-4.358-0.69c-1.405-0.473-2.761-1.153-3.901-2.114C266.032,280.704,265.075,279.501,264.589,278.125
							z"/>
					</g>
					<g>
						<path style="fill:#FF9804;" d="M277.139,270.209c1.137,1.164,2.495,2.026,3.898,2.727c1.417,0.685,2.92,1.159,4.461,1.45
							c0.775,0.132,1.551,0.257,2.341,0.286c0.785,0.105,1.578,0.041,2.374,0.069c0.795-0.008,1.59-0.097,2.395-0.126
							c0.8-0.076,1.595-0.202,2.414-0.258c-0.764,0.276-1.548,0.5-2.333,0.742c-0.802,0.147-1.605,0.344-2.424,0.421
							c-1.637,0.173-3.309,0.145-4.949-0.151c-1.63-0.327-3.23-0.881-4.652-1.751C279.245,272.762,277.973,271.618,277.139,270.209z
							"/>
					</g>
					<g>
						<path style="fill:#FF9804;" d="M292.239,261.322c0.373,1.264,1.038,2.371,1.808,3.353c0.787,0.975,1.732,1.801,2.778,2.483
							l0.795,0.501l0.845,0.423c0.544,0.327,1.167,0.487,1.743,0.765l1.826,0.624c0.621,0.184,1.253,0.335,1.883,0.551
							c-0.658,0.009-1.315-0.047-1.982-0.071c-0.651-0.106-1.313-0.201-1.962-0.36c-1.284-0.36-2.564-0.833-3.696-1.597
							c-1.126-0.756-2.144-1.71-2.865-2.869C292.685,263.981,292.227,262.65,292.239,261.322z"/>
					</g>
					<g>
						<path style="fill:#FF9804;" d="M307.046,254.712c0.505,1.39,1.241,2.646,2.101,3.778c0.875,1.12,1.886,2.122,3.053,2.915
							c0.596,0.373,1.176,0.786,1.831,1.061c0.321,0.149,0.63,0.331,0.963,0.456c0.336,0.117,0.67,0.243,1.005,0.374
							c0.666,0.27,1.379,0.397,2.073,0.622c0.705,0.179,1.428,0.28,2.152,0.47c-0.736,0.036-1.48,0.031-2.228,0.014
							c-0.733-0.113-1.495-0.141-2.217-0.358c-1.477-0.323-2.87-0.988-4.148-1.818C309.139,260.479,307.31,257.689,307.046,254.712z
							"/>
					</g>
					<g>
						<path style="fill:#FF9804;" d="M324.723,250.154c0.128,1.306,0.424,2.559,0.833,3.751c0.421,1.188,0.986,2.313,1.735,3.3
							c0.739,0.988,1.602,1.905,2.634,2.63c0.482,0.413,1.054,0.693,1.589,1.053c0.546,0.342,1.147,0.58,1.718,0.925
							c-0.64-0.128-1.288-0.279-1.922-0.479c-0.606-0.264-1.257-0.465-1.814-0.847c-1.192-0.638-2.188-1.614-3.011-2.691
							C324.86,255.6,324.217,252.739,324.723,250.154z"/>
					</g>
					<g>
						<path style="fill:#FF9804;" d="M401.263,253.991c-1.151,0.526-2.227,1.147-3.259,1.803c-1.021,0.674-1.982,1.417-2.821,2.274
							c-0.871,0.831-1.538,1.834-2.104,2.89c-0.591,1.061-0.878,2.252-1.188,3.486c-0.081-1.247-0.043-2.589,0.473-3.799
							c0.461-1.216,1.174-2.362,2.106-3.278C396.325,255.53,398.745,254.323,401.263,253.991z"/>
					</g>
				</g>
				<g>
					<defs>
						<path id="SVGID_1_" d="M190.696,290.587c-19.043-5.419-34.296-5.988-46.185-4.334c0.455-0.05,5.591-0.305,11.396,12.163
							c0.934,2.006,1.885,4.332,2.837,7.051c7.149,20.425,20.426,58.553,22.468,64.34c2.042,5.787,7.489,12.936,13.277,3.745
							c5.049-8.019,31.342-54.122,39.778-68.016c1.233-2.032,2.087-3.379,2.435-3.813c2.723-3.404,8.691-13.16,13.273-15.479
							C233.936,293.935,215.914,297.765,190.696,290.587z"/>
					</defs>
					<use xlink:href="#SVGID_1_"  style="overflow:visible;fill:#F07400;"/>
					<clipPath id="SVGID_00000080907183086421711610000011278597402257509765_">
						<use xlink:href="#SVGID_1_"  style="overflow:visible;"/>
					</clipPath>
					<g style="clip-path:url(#SVGID_00000080907183086421711610000011278597402257509765_);">
						<g>
							
								<line style="fill:none;stroke:#FFFFFF;stroke-linecap:round;stroke-linejoin:round;stroke-miterlimit:10;" x1="155.638" y1="245.171" x2="281.901" y2="291.477"/>
							
								<line style="fill:none;stroke:#FFFFFF;stroke-linecap:round;stroke-linejoin:round;stroke-miterlimit:10;" x1="152.551" y1="253.589" x2="278.814" y2="299.895"/>
							
								<line style="fill:none;stroke:#FFFFFF;stroke-linecap:round;stroke-linejoin:round;stroke-miterlimit:10;" x1="149.464" y1="262.007" x2="275.727" y2="308.312"/>
							
								<line style="fill:none;stroke:#FFFFFF;stroke-linecap:round;stroke-linejoin:round;stroke-miterlimit:10;" x1="146.377" y1="270.424" x2="272.64" y2="316.73"/>
							
								<line style="fill:none;stroke:#FFFFFF;stroke-linecap:round;stroke-linejoin:round;stroke-miterlimit:10;" x1="143.29" y1="278.842" x2="269.553" y2="325.147"/>
							
								<line style="fill:none;stroke:#FFFFFF;stroke-linecap:round;stroke-linejoin:round;stroke-miterlimit:10;" x1="140.203" y1="287.259" x2="266.466" y2="333.565"/>
							
								<line style="fill:none;stroke:#FFFFFF;stroke-linecap:round;stroke-linejoin:round;stroke-miterlimit:10;" x1="137.116" y1="295.677" x2="263.379" y2="341.983"/>
							
								<line style="fill:none;stroke:#FFFFFF;stroke-linecap:round;stroke-linejoin:round;stroke-miterlimit:10;" x1="134.029" y1="304.094" x2="260.292" y2="350.4"/>
							
								<line style="fill:none;stroke:#FFFFFF;stroke-linecap:round;stroke-linejoin:round;stroke-miterlimit:10;" x1="130.942" y1="312.512" x2="257.205" y2="358.818"/>
							
								<line style="fill:none;stroke:#FFFFFF;stroke-linecap:round;stroke-linejoin:round;stroke-miterlimit:10;" x1="127.855" y1="320.929" x2="254.118" y2="367.235"/>
							
								<line style="fill:none;stroke:#FFFFFF;stroke-linecap:round;stroke-linejoin:round;stroke-miterlimit:10;" x1="124.768" y1="329.347" x2="251.031" y2="375.653"/>
							
								<line style="fill:none;stroke:#FFFFFF;stroke-linecap:round;stroke-linejoin:round;stroke-miterlimit:10;" x1="121.681" y1="337.764" x2="247.944" y2="384.07"/>
							
								<line style="fill:none;stroke:#FFFFFF;stroke-linecap:round;stroke-linejoin:round;stroke-miterlimit:10;" x1="118.594" y1="346.182" x2="244.857" y2="392.488"/>
							
								<line style="fill:none;stroke:#FFFFFF;stroke-linecap:round;stroke-linejoin:round;stroke-miterlimit:10;" x1="115.507" y1="354.599" x2="241.77" y2="400.905"/>
							
								<line style="fill:none;stroke:#FFFFFF;stroke-linecap:round;stroke-linejoin:round;stroke-miterlimit:10;" x1="112.42" y1="363.017" x2="238.682" y2="409.323"/>
							
								<line style="fill:none;stroke:#FFFFFF;stroke-linecap:round;stroke-linejoin:round;stroke-miterlimit:10;" x1="109.333" y1="371.435" x2="235.595" y2="417.74"/>
						</g>
						<g>
							
								<line style="fill:none;stroke:#FFFFFF;stroke-linecap:round;stroke-linejoin:round;stroke-miterlimit:10;" x1="281.901" y1="291.478" x2="235.595" y2="417.74"/>
							
								<line style="fill:none;stroke:#FFFFFF;stroke-linecap:round;stroke-linejoin:round;stroke-miterlimit:10;" x1="273.484" y1="288.391" x2="227.178" y2="414.653"/>
							
								<line style="fill:none;stroke:#FFFFFF;stroke-linecap:round;stroke-linejoin:round;stroke-miterlimit:10;" x1="265.066" y1="285.303" x2="218.76" y2="411.566"/>
							
								<line style="fill:none;stroke:#FFFFFF;stroke-linecap:round;stroke-linejoin:round;stroke-miterlimit:10;" x1="256.649" y1="282.216" x2="210.343" y2="408.479"/>
							
								<line style="fill:none;stroke:#FFFFFF;stroke-linecap:round;stroke-linejoin:round;stroke-miterlimit:10;" x1="248.231" y1="279.129" x2="201.925" y2="405.392"/>
							
								<line style="fill:none;stroke:#FFFFFF;stroke-linecap:round;stroke-linejoin:round;stroke-miterlimit:10;" x1="239.814" y1="276.042" x2="193.508" y2="402.305"/>
							
								<line style="fill:none;stroke:#FFFFFF;stroke-linecap:round;stroke-linejoin:round;stroke-miterlimit:10;" x1="231.396" y1="272.955" x2="185.09" y2="399.218"/>
							
								<line style="fill:none;stroke:#FFFFFF;stroke-linecap:round;stroke-linejoin:round;stroke-miterlimit:10;" x1="222.979" y1="269.868" x2="176.673" y2="396.131"/>
							
								<line style="fill:none;stroke:#FFFFFF;stroke-linecap:round;stroke-linejoin:round;stroke-miterlimit:10;" x1="214.561" y1="266.781" x2="168.255" y2="393.044"/>
							
								<line style="fill:none;stroke:#FFFFFF;stroke-linecap:round;stroke-linejoin:round;stroke-miterlimit:10;" x1="206.144" y1="263.694" x2="159.838" y2="389.957"/>
							
								<line style="fill:none;stroke:#FFFFFF;stroke-linecap:round;stroke-linejoin:round;stroke-miterlimit:10;" x1="197.726" y1="260.607" x2="151.42" y2="386.87"/>
							
								<line style="fill:none;stroke:#FFFFFF;stroke-linecap:round;stroke-linejoin:round;stroke-miterlimit:10;" x1="189.309" y1="257.52" x2="143.003" y2="383.783"/>
							
								<line style="fill:none;stroke:#FFFFFF;stroke-linecap:round;stroke-linejoin:round;stroke-miterlimit:10;" x1="180.891" y1="254.433" x2="134.585" y2="380.696"/>
							
								<line style="fill:none;stroke:#FFFFFF;stroke-linecap:round;stroke-linejoin:round;stroke-miterlimit:10;" x1="172.474" y1="251.346" x2="126.168" y2="377.609"/>
							
								<line style="fill:none;stroke:#FFFFFF;stroke-linecap:round;stroke-linejoin:round;stroke-miterlimit:10;" x1="164.056" y1="248.259" x2="117.75" y2="374.522"/>
							
								<line style="fill:none;stroke:#FFFFFF;stroke-linecap:round;stroke-linejoin:round;stroke-miterlimit:10;" x1="155.639" y1="245.172" x2="109.333" y2="371.435"/>
						</g>
					</g>
				</g>
				<g>
					<path style="fill:#F7C02F;" d="M359.483,384.195H145.115c-2.213,0-4.023,1.81-4.023,4.023l0,0c0,2.213,1.81,4.023,4.023,4.023
						h214.368c2.213,0,4.023-1.81,4.023-4.023l0,0C363.506,386.006,361.695,384.195,359.483,384.195z"/>
					<g>
						<g>
							<path style="fill:#FF9804;" d="M150.338,384.195c0.474,1.88,1.182,3.602,2.359,4.962c0.575,0.682,1.246,1.292,2.023,1.774
								c0.759,0.522,1.619,0.882,2.507,1.31c-0.971-0.02-1.972-0.189-2.88-0.625c-0.934-0.385-1.748-1.048-2.414-1.815
								c-0.654-0.782-1.146-1.697-1.412-2.664C150.255,386.174,150.159,385.163,150.338,384.195z"/>
						</g>
						<g>
							<path style="fill:#FF9804;" d="M160.938,384.195c0.474,1.88,1.182,3.602,2.359,4.962c0.575,0.682,1.246,1.292,2.023,1.774
								c0.759,0.522,1.619,0.882,2.507,1.31c-0.971-0.02-1.972-0.189-2.88-0.625c-0.934-0.385-1.748-1.048-2.414-1.815
								c-0.654-0.782-1.146-1.697-1.412-2.664C160.854,386.174,160.758,385.163,160.938,384.195z"/>
						</g>
						<g>
							<path style="fill:#FF9804;" d="M171.537,384.195c0.474,1.88,1.182,3.602,2.359,4.962c0.575,0.682,1.246,1.292,2.023,1.774
								c0.759,0.522,1.619,0.882,2.507,1.31c-0.971-0.02-1.972-0.189-2.88-0.625c-0.934-0.385-1.748-1.048-2.414-1.815
								c-0.654-0.782-1.146-1.697-1.412-2.664C171.454,386.174,171.358,385.163,171.537,384.195z"/>
						</g>
						<g>
							<path style="fill:#FF9804;" d="M182.137,384.195c0.474,1.88,1.182,3.602,2.359,4.962c0.575,0.682,1.246,1.292,2.023,1.774
								c0.759,0.522,1.619,0.882,2.507,1.31c-0.971-0.02-1.972-0.189-2.88-0.625c-0.934-0.385-1.747-1.048-2.414-1.815
								c-0.654-0.782-1.146-1.697-1.412-2.664C182.054,386.174,181.958,385.163,182.137,384.195z"/>
						</g>
						<g>
							<path style="fill:#FF9804;" d="M192.736,384.195c0.474,1.88,1.182,3.602,2.359,4.962c0.575,0.682,1.246,1.292,2.023,1.774
								c0.759,0.522,1.619,0.882,2.507,1.31c-0.971-0.02-1.972-0.189-2.88-0.625c-0.934-0.385-1.747-1.048-2.414-1.815
								c-0.654-0.782-1.146-1.697-1.412-2.664C192.653,386.174,192.557,385.163,192.736,384.195z"/>
						</g>
						<g>
							<path style="fill:#FF9804;" d="M203.336,384.195c0.474,1.88,1.182,3.602,2.359,4.962c0.575,0.682,1.246,1.292,2.023,1.774
								c0.759,0.522,1.619,0.882,2.507,1.31c-0.971-0.02-1.972-0.189-2.88-0.625c-0.934-0.385-1.747-1.048-2.414-1.815
								c-0.654-0.782-1.146-1.697-1.411-2.664C203.253,386.174,203.157,385.163,203.336,384.195z"/>
						</g>
						<g>
							<path style="fill:#FF9804;" d="M213.936,384.195c0.474,1.88,1.182,3.602,2.359,4.962c0.575,0.682,1.246,1.292,2.023,1.774
								c0.759,0.522,1.619,0.882,2.507,1.31c-0.971-0.02-1.972-0.189-2.88-0.625c-0.934-0.385-1.747-1.048-2.414-1.815
								c-0.654-0.782-1.146-1.697-1.411-2.664C213.852,386.174,213.756,385.163,213.936,384.195z"/>
						</g>
						<g>
							<path style="fill:#FF9804;" d="M224.535,384.195c0.474,1.88,1.182,3.602,2.359,4.962c0.575,0.682,1.246,1.292,2.023,1.774
								c0.759,0.522,1.619,0.882,2.507,1.31c-0.971-0.02-1.972-0.189-2.88-0.625c-0.934-0.385-1.747-1.048-2.414-1.815
								c-0.654-0.782-1.146-1.697-1.411-2.664C224.452,386.174,224.356,385.163,224.535,384.195z"/>
						</g>
						<g>
							<path style="fill:#FF9804;" d="M235.135,384.195c0.474,1.88,1.182,3.602,2.359,4.962c0.575,0.682,1.246,1.292,2.023,1.774
								c0.759,0.522,1.619,0.882,2.507,1.31c-0.971-0.02-1.972-0.189-2.88-0.625c-0.934-0.385-1.747-1.048-2.414-1.815
								c-0.654-0.782-1.146-1.697-1.411-2.664C235.052,386.174,234.956,385.163,235.135,384.195z"/>
						</g>
						<g>
							<path style="fill:#FF9804;" d="M245.734,384.195c0.474,1.88,1.182,3.602,2.359,4.962c0.575,0.682,1.246,1.292,2.023,1.774
								c0.759,0.522,1.619,0.882,2.507,1.31c-0.971-0.02-1.972-0.189-2.88-0.625c-0.934-0.385-1.747-1.048-2.414-1.815
								c-0.654-0.782-1.146-1.697-1.411-2.664C245.651,386.174,245.555,385.163,245.734,384.195z"/>
						</g>
						<g>
							<path style="fill:#FF9804;" d="M256.334,384.195c0.474,1.88,1.182,3.602,2.359,4.962c0.574,0.682,1.246,1.292,2.023,1.774
								c0.759,0.522,1.619,0.882,2.507,1.31c-0.971-0.02-1.972-0.189-2.88-0.625c-0.934-0.385-1.747-1.048-2.414-1.815
								c-0.654-0.782-1.146-1.697-1.412-2.664C256.251,386.174,256.155,385.163,256.334,384.195z"/>
						</g>
						<g>
							<path style="fill:#FF9804;" d="M266.934,384.195c0.474,1.88,1.182,3.602,2.359,4.962c0.575,0.682,1.246,1.292,2.023,1.774
								c0.759,0.522,1.619,0.882,2.507,1.31c-0.971-0.02-1.972-0.189-2.88-0.625c-0.934-0.385-1.747-1.048-2.414-1.815
								c-0.654-0.782-1.146-1.697-1.412-2.664C266.85,386.174,266.754,385.163,266.934,384.195z"/>
						</g>
						<g>
							<path style="fill:#FF9804;" d="M277.533,384.195c0.474,1.88,1.182,3.602,2.359,4.962c0.575,0.682,1.246,1.292,2.023,1.774
								c0.759,0.522,1.619,0.882,2.507,1.31c-0.971-0.02-1.972-0.189-2.88-0.625c-0.934-0.385-1.747-1.048-2.414-1.815
								c-0.654-0.782-1.146-1.697-1.412-2.664C277.45,386.174,277.354,385.163,277.533,384.195z"/>
						</g>
						<g>
							<path style="fill:#FF9804;" d="M288.133,384.195c0.474,1.88,1.182,3.602,2.359,4.962c0.575,0.682,1.246,1.292,2.023,1.774
								c0.759,0.522,1.619,0.882,2.507,1.31c-0.971-0.02-1.972-0.189-2.88-0.625c-0.934-0.385-1.748-1.048-2.414-1.815
								c-0.654-0.782-1.146-1.697-1.412-2.664C288.05,386.174,287.954,385.163,288.133,384.195z"/>
						</g>
						<g>
							<path style="fill:#FF9804;" d="M298.732,384.195c0.474,1.88,1.182,3.602,2.359,4.962c0.575,0.682,1.246,1.292,2.023,1.774
								c0.759,0.522,1.619,0.882,2.507,1.31c-0.971-0.02-1.972-0.189-2.88-0.625c-0.934-0.385-1.748-1.048-2.414-1.815
								c-0.654-0.782-1.146-1.697-1.412-2.664C298.649,386.174,298.553,385.163,298.732,384.195z"/>
						</g>
						<g>
							<path style="fill:#FF9804;" d="M309.332,384.195c0.474,1.88,1.182,3.602,2.359,4.962c0.575,0.682,1.246,1.292,2.023,1.774
								c0.759,0.522,1.619,0.882,2.507,1.31c-0.971-0.02-1.972-0.189-2.88-0.625c-0.934-0.385-1.748-1.048-2.414-1.815
								c-0.654-0.782-1.146-1.697-1.412-2.664C309.249,386.174,309.153,385.163,309.332,384.195z"/>
						</g>
						<g>
							<path style="fill:#FF9804;" d="M319.932,384.195c0.474,1.88,1.182,3.602,2.359,4.962c0.575,0.682,1.246,1.292,2.023,1.774
								c0.759,0.522,1.619,0.882,2.507,1.31c-0.971-0.02-1.972-0.189-2.88-0.625c-0.934-0.385-1.748-1.048-2.414-1.815
								c-0.654-0.782-1.146-1.697-1.412-2.664C319.849,386.174,319.752,385.163,319.932,384.195z"/>
						</g>
						<g>
							<path style="fill:#FF9804;" d="M330.531,384.195c0.474,1.88,1.182,3.602,2.359,4.962c0.575,0.682,1.246,1.292,2.023,1.774
								c0.759,0.522,1.619,0.882,2.507,1.31c-0.971-0.02-1.972-0.189-2.88-0.625c-0.934-0.385-1.748-1.048-2.414-1.815
								c-0.654-0.782-1.146-1.697-1.412-2.664C330.448,386.174,330.352,385.163,330.531,384.195z"/>
						</g>
						<g>
							<path style="fill:#FF9804;" d="M341.131,384.195c0.474,1.88,1.182,3.602,2.359,4.962c0.575,0.682,1.246,1.292,2.023,1.774
								c0.759,0.522,1.619,0.882,2.507,1.31c-0.971-0.02-1.972-0.189-2.88-0.625c-0.934-0.385-1.748-1.048-2.414-1.815
								c-0.654-0.782-1.146-1.697-1.412-2.664C341.048,386.174,340.952,385.163,341.131,384.195z"/>
						</g>
						<g>
							<path style="fill:#FF9804;" d="M351.731,384.195c0.474,1.88,1.182,3.602,2.359,4.962c0.575,0.682,1.246,1.292,2.023,1.774
								c0.759,0.522,1.619,0.882,2.507,1.31c-0.971-0.02-1.972-0.189-2.88-0.625c-0.934-0.385-1.748-1.048-2.414-1.815
								c-0.654-0.782-1.146-1.697-1.412-2.664C351.647,386.174,351.551,385.163,351.731,384.195z"/>
						</g>
					</g>
				</g>
			</g>
		</g>
		<g>
			<g>
				
					<ellipse transform="matrix(0.9651 -0.2619 0.2619 0.9651 -92.8931 42.1684)" style="fill:#004F00;" cx="111.753" cy="369.583" rx="26.963" ry="26.963"/>
				<g>
					<path style="fill:#E5E5E5;" d="M97.714,346.568l-3.044-4.083l-4.929,3.674l3.123,4.19c0.861-0.843,1.782-1.643,2.775-2.383
						C96.315,347.461,97.009,346.999,97.714,346.568z"/>
				</g>
				<path style="fill:none;stroke:#000000;stroke-miterlimit:10;" d="M91.161,345.1c-3.875-0.316-26.315-4.467-21.837-12.593
					c4.478-8.126,21.485,6.599,23.343,11.471"/>
				<path style="fill:#FFDE1D;" d="M99.316,362.679c1.103,1.479,0.797,3.573-0.682,4.676c-1.479,1.103-3.573,0.797-4.676-0.682
					c-1.103-1.479-0.797-3.573,0.682-4.676C96.12,360.894,98.213,361.2,99.316,362.679z"/>
				<path style="fill:#FFDE1D;" d="M108.677,350.094c1.103,1.48,0.797,3.573-0.682,4.676c-1.479,1.103-3.573,0.798-4.676-0.682
					c-1.103-1.479-0.797-3.573,0.682-4.675C105.481,348.309,107.574,348.614,108.677,350.094z"/>
				<path style="fill:#FFDE1D;" d="M124.073,357.611c1.103,1.479,0.797,3.573-0.682,4.676c-1.479,1.103-3.573,0.797-4.676-0.682
					c-1.103-1.479-0.797-3.573,0.682-4.676C120.877,355.827,122.971,356.132,124.073,357.611z"/>
				<path style="fill:#FFDE1D;" d="M133.563,370.342c1.103,1.479,0.797,3.573-0.682,4.676c-1.479,1.103-3.573,0.797-4.676-0.682
					c-1.103-1.479-0.797-3.573,0.682-4.676C130.367,368.557,132.46,368.863,133.563,370.342z"/>
				<path style="fill:#FFDE1D;" d="M116.409,369.827c1.103,1.479,0.797,3.573-0.682,4.676c-1.479,1.103-3.573,0.797-4.675-0.682
					c-1.103-1.479-0.797-3.573,0.682-4.676C113.213,368.042,115.307,368.347,116.409,369.827z"/>
				<path style="fill:#FFDE1D;" d="M118.928,385.418c1.103,1.479,0.797,3.573-0.682,4.676c-1.48,1.103-3.573,0.797-4.676-0.682
					c-1.103-1.479-0.797-3.573,0.682-4.676C115.732,383.633,117.825,383.939,118.928,385.418z"/>
				<path style="fill:#FFDE1D;" d="M100.247,378.159c1.103,1.479,0.797,3.573-0.682,4.676c-1.479,1.103-3.573,0.797-4.675-0.682
					c-1.103-1.479-0.797-3.573,0.682-4.676C97.051,376.375,99.145,376.68,100.247,378.159z"/>
			</g>
			<g>
				
					<ellipse transform="matrix(0.9911 -0.1328 0.1328 0.9911 -49.9068 23.1019)" style="fill:#FF8789;" cx="148.186" cy="385.581" rx="29.885" ry="29.885"/>
				<path style="fill:#920300;" d="M130.595,361.418c3.366-2.452,7.165-4.133,11.131-5.009c2.517,3.649,5.589,7,9.334,9.904
					c12.487,9.68,20.569,19.196,25.814,27.645c-0.991,3.397-2.6,6.675-4.862,9.664c-0.674,0.89-1.391,1.727-2.14,2.52
					c-4.06-8.419-11.713-19.141-26.164-30.343C138.27,371.583,133.971,366.7,130.595,361.418z"/>
				<path style="fill:#920300;" d="M118.437,382.729c0.479-5.048,2.253-10.03,5.384-14.438c3.005,6.258,7.263,11.972,13.195,16.57
					c12.167,9.433,20.152,18.708,25.407,26.994c-3.762,2.035-7.897,3.225-12.11,3.527c-4.541-6.456-11.107-13.64-20.649-21.037
					C125.188,390.877,121.491,386.953,118.437,382.729z"/>
				<g>
					<g>
						<path style="fill:#E5E5E5;" d="M163.938,360.189l3.408-4.5l5.432,4.113l-3.497,4.618c-0.947-0.942-1.961-1.836-3.055-2.664
							C165.481,361.192,164.716,360.673,163.938,360.189z"/>
					</g>
				</g>
				<path style="fill:none;stroke:#000000;stroke-miterlimit:10;" d="M171.213,358.617c4.297-0.318,29.203-4.732,24.308-13.775
					c-4.895-9.044-23.868,7.134-25.968,12.519"/>
			</g>
			<g>
				<g>
					<g>
						<path style="fill:#5C8D00;" d="M364.899,363.438c-6.849-6.109-6.25-16.698-6.25-16.698s-6.243,8.083-15.025,7.251
							c0,0,5.566,11.675-5.503,15.019c0,0,4.859,9.473-1.527,17.257c0,0,3.835,10.199,1.084,17.708
							c2.752-7.51,11.942-11.924,11.942-11.924c0.307-10.483,9.777-13.593,9.777-13.593
							C353.532,367.594,364.899,363.438,364.899,363.438z"/>
						<g>
							
								<line style="fill:none;stroke:#417300;stroke-linecap:round;stroke-miterlimit:10;" x1="358.129" y1="348.16" x2="337.677" y2="403.975"/>
						</g>
					</g>
				</g>
				<g>
					<g>
						<path style="fill:#80B616;" d="M294.018,376.154c-3.589,6.863-12.982,7.458-12.982,7.458s8.641,4.79,10.149,12.839
							c0,0,8.772-6.299,14.505,3.374c0,0,7.031-5.421,15.447-0.469c0,0,7.924-4.572,15.177-2.885
							c-7.253-1.687-13.442-9.542-13.442-9.542c-9.226,0.848-14.348-7.4-14.348-7.4C300.535,386.01,294.018,376.154,294.018,376.154
							z"/>
						<g>
							
								<line style="fill:none;stroke:#417300;stroke-linecap:round;stroke-miterlimit:10;" x1="282.408" y1="383.931" x2="336.313" y2="396.471"/>
						</g>
					</g>
				</g>
				<g>
					<g>
						<path style="fill:#80B616;" d="M389.579,384.297c-2.191-9.571,6.339-18.01,6.339-18.01s-12.231,2.659-20.289-3.775
							c0,0-3.25,13.374-16.699,8.927c0,0-2.298,11.076-14.446,13.392c0,0-3.854,11.012-12.203,15.475
							c8.35-4.464,20.744-2.137,20.744-2.137c8.162-8.541,19.855-4.945,19.855-4.945
							C375.227,380.332,389.579,384.297,389.579,384.297z"/>
						<g>
							
								<line style="fill:none;stroke:#417300;stroke-linecap:round;stroke-miterlimit:10;" x1="394.339" y1="367.132" x2="332.281" y2="400.306"/>
						</g>
					</g>
				</g>
				<circle style="fill:#A50008;" cx="327.904" cy="395.2" r="7.66"/>
				<path style="fill:#D80001;" d="M346.34,396.903c0,3.96-3.21,7.17-7.17,7.17s-7.17-3.21-7.17-7.17c0-3.96,3.21-7.17,7.17-7.17
					S346.34,392.943,346.34,396.903z"/>
			</g>
		</g>
	</g>
</g>
</svg>
