<?xml version="1.0" encoding="utf-8"?>
<!-- Generator: Adobe Illustrator 27.5.0, SVG Export Plug-In . SVG Version: 6.00 Build 0)  -->
<svg version="1.1" xmlns="http://www.w3.org/2000/svg" xmlns:xlink="http://www.w3.org/1999/xlink" x="0px" y="0px"
	 viewBox="0 0 500 500" style="enable-background:new 0 0 500 500;" xml:space="preserve">
<g id="BACKGROUND">
	<rect style="fill:none;" width="500" height="500"/>
</g>
<g id="OBJECT" xmlns:vectornator="http://vectornator.io">
	<g id="XMLID_64_">
		<path id="XMLID_60_" style="fill:#DEEBFF;" d="M436.667,347.78c0,0,14.667-80.667-11.333-127.333s-56-28.667-85.333-84.667
			s-120.667-60.667-170-19.333S44.667,241.78,92,341.78S436.667,347.78,436.667,347.78z"/>
		<path id="XMLID_58_" style="fill:#D1E1FF;" d="M157,150.947c0,0-5-16.5-14-18.5s-16.5,3-16.5,3s-1.25-15-20.5-15
			c-21.966,0-26,15.5-26,15.5s-19-12-25,15H157z"/>
		<path id="XMLID_46_" style="fill:#D1E1FF;" d="M419.667,163.613c0,0-5-16.5-14-18.5s-16.5,3-16.5,3s-1.25-15-20.5-15
			c-21.966,0-26,15.5-26,15.5s-19-12-25,15H419.667z"/>
		<path id="XMLID_55_" style="fill:#D1E1FF;" d="M293.098,75.614c0,0-3.142-10.369-8.798-11.626
			c-5.656-1.257-10.369,1.885-10.369,1.885s-0.785-9.426-12.883-9.426c-13.804,0-16.339,9.74-16.339,9.74s-11.94-7.541-15.71,9.426
			H293.098z"/>
		<path id="XMLID_61_" style="fill:#FFFFFF;" d="M438.098,230.613c0,0-3.142-10.369-8.798-11.626
			c-5.656-1.257-10.369,1.885-10.369,1.885s-0.785-9.426-12.883-9.426c-13.804,0-16.339,9.74-16.339,9.74s-11.94-7.541-15.71,9.426
			H438.098z"/>
		<path id="XMLID_59_" style="fill:#FFFFFF;" d="M280.432,195.613c0,0-3.142-10.369-8.798-11.626
			c-5.656-1.257-10.369,1.885-10.369,1.885s-0.786-9.426-12.883-9.426c-13.804,0-16.339,9.74-16.339,9.74s-11.94-7.541-15.71,9.426
			H280.432z"/>
	</g>
	<g id="XMLID_63_">
		<g id="XMLID_53_">
			<polygon id="XMLID_51_" style="fill:#5A90FF;" points="190.667,250.113 206.333,250.113 206.333,269.78 218,269.78 218,253.113 
				232.667,253.113 232.667,280.447 292,280.447 292,257.447 315,257.447 315,298.114 327.333,298.114 327.333,331.114 
				184.333,331.114 184.333,251.113 			"/>
			<path id="XMLID_50_" style="fill:#73AF00;" d="M434,365.78c0,0-28.578-25.333-91.333-41.333
				C289.045,310.775,169.333,307.114,126,353.114S386,439.78,434,365.78z"/>
			<path id="XMLID_57_" style="fill:#ADADAD;" d="M469.268,365.114c-25.768-28.333-81.435-25.5-81.435-25.5
				s62.861,23.5,23.973,34.167c-38.888,10.667-65.981,16.238-146.846,10c-77.776-6-146.846-30-146.846-30h-4.781l23.667-28
				c0,0-86.758,0.585-102,24.5c-29,45.5,27.946,97.501,232.5,93C472,438.78,488.729,386.512,469.268,365.114z"/>
		</g>
		<g id="XMLID_62_">
			<path id="XMLID_49_" style="fill:#FF5256;" d="M360.862,315.528c0,0-23.534-34.233-12.248-52.464
				C359.9,244.834,401.456,259.305,360.862,315.528z"/>
			<ellipse id="XMLID_52_" style="fill:#F3FFD4;" cx="362.25" cy="274.405" rx="8.5" ry="10.125"/>
		</g>
	</g>
	<g id="XMLID_65_">
		<path id="XMLID_48_" style="fill:#909391;" d="M84,379.28c0,0-12,14.5,48.5,27s65,1.5,91.5,7s55,11,75.5,5.5s16-16-24-16
			s-98-10.5-125-16S106.5,372.28,84,379.28z"/>
		<g id="XMLID_30_">
			<rect id="XMLID_42_" x="77" y="208.78" style="fill:#FF8F08;" width="68" height="88.333"/>
			<path id="XMLID_39_" style="fill:#7E769B;" d="M107.833,303.78H51.167c-2.117,0-3.833-1.716-3.833-3.833l0,0
				c0-2.117,1.716-3.833,3.833-3.833h56.667c2.117,0,3.833,1.716,3.833,3.833l0,0C111.667,302.064,109.95,303.78,107.833,303.78z"/>
			<path id="XMLID_25_" style="fill:#2A3000;" d="M261.681,237.527h20.709c1.81,0,3.276-1.467,3.276-3.276l0,0
				c0-1.809-1.467-3.276-3.276-3.276h-20.709V237.527z"/>
			<path id="XMLID_32_" style="fill:#FFAD5D;" d="M259.444,227.572c0,0,13.492-2.025,17.633-0.64
				c4.141,1.385,5.079,6.659,4.6,10.046s-2.796,4.932-4.207,4.802s-2.315-1.217-2.315-1.217s-1.125,1.319-3.102,0.97
				c-1.976-0.349-3.024-1.7-3.024-1.7s-0.899,1.591-3.109,1.053c-2.21-0.538-3.068-3.043-3.068-3.043s-3.495-1.306-4.6-1.845
				C255.028,234.426,255.64,229.816,259.444,227.572z"/>
			<path id="XMLID_33_" style="fill:#00742C;" d="M183.333,180.447c0,0,11.711,3.069,15,14.333
				c3.289,11.264,11.917,29.25,11.917,29.25s39.639,6.685,43.819,6.668c4.18-0.017,6.786,5.116,6.431,10.832
				c-0.355,5.717-46.698,6.218-56.5,3.5c-14.144-3.922-27.888-37.228-28.835-44.507
				C174.218,193.243,171.874,181.411,183.333,180.447z"/>
			<path id="XMLID_27_" style="fill:#7E769B;" d="M209.231,369.918l-45.385,11.219c-2.502,0.618-5.032-0.908-5.65-3.41l0,0
				c-0.618-2.502,0.908-5.032,3.41-5.65l45.385-11.219c2.502-0.618,5.032,0.908,5.65,3.41l0,0
				C213.26,366.769,211.733,369.299,209.231,369.918z"/>
			<path id="XMLID_26_" style="fill:#2A3000;" d="M189,267.53c0,0,21.75,0.25,31.25,15.75c9.5,15.5,3.75,56,3.75,56l-22.5-0.25
				l-0.25-34.25l-12.75-8.5L189,267.53z"/>
			
				<ellipse id="XMLID_14_" transform="matrix(0.9966 -0.0824 0.0824 0.9966 -29.4259 11.3717)" style="fill:#2A3000;" cx="123.105" cy="362.308" rx="34.088" ry="37.801"/>
			
				<ellipse id="XMLID_17_" transform="matrix(0.9966 -0.0824 0.0824 0.9966 -29.3985 10.9669)" style="fill:#AAC5FF;" cx="118.231" cy="361.823" rx="17.13" ry="21.294"/>
			
				<ellipse id="XMLID_19_" transform="matrix(0.9823 -0.1871 0.1871 0.9823 -64.4778 58.3182)" style="fill:#2A3000;" cx="276.644" cy="370.666" rx="37.997" ry="42.136"/>
			
				<ellipse id="XMLID_18_" transform="matrix(0.9823 -0.1871 0.1871 0.9823 -64.5082 56.7231)" style="fill:#AAC5FF;" cx="268.184" cy="370.035" rx="19.095" ry="23.736"/>
			<path id="XMLID_15_" style="fill:#7E769B;" d="M116.316,362.043l-1.84-0.174c-1.913-0.181-3.317-1.878-3.136-3.79l1.206-12.77
				l8.766,0.828l-1.206,12.77C119.925,360.82,118.228,362.224,116.316,362.043z"/>
			<path id="XMLID_13_" style="fill:#998FB5;" d="M117.985,351.025l-2.821-0.266c-2.932-0.277-5.085-2.879-4.808-5.811l1.849-19.579
				l13.44,1.269l-1.849,19.579C123.519,349.149,120.917,351.302,117.985,351.025z"/>
			<path id="XMLID_21_" style="fill:#7E769B;" d="M266.801,377.89l-1.788,0.466c-1.859,0.485-3.759-0.629-4.244-2.488l-3.237-12.412
				l8.52-2.222l3.237,12.412C269.774,375.505,268.66,377.405,266.801,377.89z"/>
			<path id="XMLID_20_" style="fill:#998FB5;" d="M264.598,366.965l-2.742,0.715c-2.85,0.743-5.763-0.964-6.507-3.815l-4.964-19.03
				l13.063-3.407l4.964,19.03C269.156,363.309,267.449,366.222,264.598,366.965z"/>
			<path id="XMLID_11_" style="fill:#5A90FF;" d="M135.794,335.92l-4.772-4.865c-1.047-1.068-2.576-1.682-4.185-1.682h-18.631
				c-1.948,0-3.751,0.898-4.743,2.363l-10.639,15.7c-1.336,1.972-4.077,2.848-6.554,2.095h0c-3.399-1.033-4.772-4.589-2.785-7.211
				l19.18-25.304c1.048-1.383,2.837-2.197,4.734-2.156l41.732,0.916c1.671,0.037,3.233,0.734,4.246,1.896l2.87,3.291
				c1.77,2.031,1.421,4.916-0.797,6.578l-11.882,8.901C141.256,338.174,137.776,337.94,135.794,335.92z"/>
			<path id="XMLID_10_" style="fill:#AAC5FF;" d="M136.915,331.618L136.915,331.618c-1.019,2.924-1.04,6.103-0.061,9.04
				l5.441,16.322c1.883,5.648,7.129,9.489,13.082,9.577l38.609,0.573c0,0-17.415-31.583-36.863-43.053
				C149.562,319.619,139.802,323.331,136.915,331.618z"/>
			<path id="XMLID_12_" style="fill:#2768FF;" d="M193.471,321.387h0.192l1.855-7.421c1.841-7.365-3.626-14.536-11.215-14.711
				l-73.639-1.701c-5.346-0.124-10.125,3.344-11.629,8.476c-0.029,0.099-0.058,0.198-0.087,0.297
				c-2.182,7.543,3.545,15.06,11.397,15.06h35.085c4.292,0,8.243,2.316,10.335,6.063c6.643,11.901,21.144,33.724,41.581,41.406
				c5.603,2.106,11.898-0.348,14.649-5.665l5.126-9.91c2.776-5.368,1.067-11.957-3.966-15.303
				C207.1,333.95,199.211,328.048,193.471,321.387z"/>
			<path id="XMLID_3_" style="fill:#AAC5FF;" d="M234.754,249.142l-12.742,6.578c-4.43,2.287-7.069,6.892-6.741,11.763l3.378,50.145
				c0.133,1.977-0.223,3.957-1.037,5.773l-15.637,34.854c-4.007,8.931,3.65,18.662,13.551,17.222l0,0
				c4.325-0.629,8.014-3.368,9.772-7.266c5.422-12.023,18.342-37.504,31.659-40.555c9.205-2.109,15.564-2.831,19.524-3.043
				c3.507-0.187,6.766-1.795,9.021-4.417l4.477-5.205c2.554-2.97,3.535-6.931,2.653-10.708l-10.173-43.523
				c-0.922-3.945-3.763-7.203-7.612-8.73l-9.919-3.934c-1.634-0.648-3.389-0.959-5.153-0.912l-19.403,0.518
				C238.41,247.755,236.487,248.247,234.754,249.142z"/>
			<path id="XMLID_1_" style="fill:#2768FF;" d="M255.868,248.447h-23.136c-4.422,0-8.007-3.585-8.007-8.007v-10.534
				c0-4.422,3.585-8.007,8.007-8.007h23.136c4.422,0,8.007,3.585,8.007,8.007v10.534
				C263.875,244.862,260.29,248.447,255.868,248.447z"/>
			<path id="XMLID_7_" style="fill:#2768FF;" d="M258.465,310.033l-8.333-49.4c-0.805-4.771,2.41-9.29,7.181-10.095l0.584-0.098
				c4.771-0.805,9.29,2.41,10.095,7.181l8.333,49.4c0.805,4.771-2.41,9.29-7.181,10.095l-0.584,0.099
				C263.789,318.018,259.269,314.803,258.465,310.033z"/>
			<path id="XMLID_8_" style="fill:#2768FF;" d="M246.096,325.242l-14.991,29.983c-0.643,1.286-0.691,2.855-0.129,4.191l1.02,2.422
				c1.286,3.056,4.94,3.412,6.654,0.65l6.959-11.216c2.03-3.272,6.483-2.038,7,1.94l0,0c0.25,1.919,1.536,3.449,3.198,3.755
				c1.37,0.252,3.293,0.252,5.908-0.44c1.855-0.491,3.126-2.475,3-4.664l-0.466-8.049c-0.171-2.951,2.144-5.279,4.658-4.684
				l30.882,7.317c0.463,0.11,0.939,0.121,1.405,0.034l12.856-2.41c2.452-0.46,3.935-3.43,2.986-6.077
				c-0.924-2.578-2.523-5.665-5.27-8.215c-5.394-5.004-31.737-10.975-36.438-12.01c-0.473-0.104-0.957-0.106-1.43-0.006
				l-25.136,5.31C247.64,323.31,246.666,324.103,246.096,325.242z"/>
			<path id="XMLID_9_" style="fill:#574A00;" d="M189.818,303.442h-79.149c-6.548,0-11.856-5.308-11.856-11.856v0
				c0-6.548,5.308-11.856,11.856-11.856h79.149c6.548,0,11.856,5.308,11.856,11.856v0
				C201.675,298.134,196.366,303.442,189.818,303.442z"/>
			<path id="XMLID_28_" style="fill:#632800;" d="M161.167,354.905l0.125,11.375c0,0-1.625,6.375,1,7.625s24.5,2.125,26.625,0.125
				s0-7.875-3.5-10s-9-1.125-9.125-2.25s-0.5-7-0.5-7L161.167,354.905z"/>
			<path id="XMLID_24_" style="fill:#2A3000;" d="M123.5,261.28c0,0-3,26.25,4.75,33.5s24,7.75,24,7.75s1.154,43.441,4.827,56.97
				L182,358.28c0,0,2.5-70.5-6.75-78l14.568-0.551L191,258.78C191,258.78,157.5,266.53,123.5,261.28z"/>
			<path id="XMLID_56_" style="fill:#73AF00;" d="M191,258.78c-3.31,2.19-7.86,3.62-13.04,4.52c-1.8,0.31-3.68,0.55-5.61,0.74
				c-21.29,2.08-48.85-2.76-48.85-2.76s-1-68.67,4-75.33c5-6.67,18-8.84,18-8.84s17.67-1.66,29.83-0.16
				c12.17,1.5,16.34,7.16,16.84,14C192.67,197.78,191,258.78,191,258.78z"/>
			<path id="XMLID_31_" style="fill:#00742C;" d="M137.333,182.113c0,0,6.333-0.5,8.667,11c2.333,11.5,4.833,36,4.833,36
				s31.167-5.667,35.333-5.333c4.167,0.333,6.333,5.667,5.5,11.333c-0.833,5.667-45.167,15.833-55.333,15.5
				c-10.167-0.333-13.5-41.667-13.833-49C122.167,194.28,125.833,182.113,137.333,182.113z"/>
			<path id="XMLID_22_" style="fill:#2A3000;" d="M212.795,237.385h-25.602c-1.809,0-3.276-1.467-3.276-3.276l0,0
				c0-1.81,1.467-3.276,3.276-3.276h25.602V237.385z"/>
			<path id="XMLID_5_" style="fill:#2768FF;" d="M227.925,240.362h-16.647c-2.389,0-4.326-1.937-4.326-4.326v-3.34
				c0-2.389,1.937-4.326,4.326-4.326h16.647c2.389,0,4.326,1.937,4.326,4.326v3.34C232.251,238.426,230.314,240.362,227.925,240.362
				z"/>
			<path id="XMLID_6_" style="fill:#2768FF;" d="M266.917,242.77h-22.466c-3.014,0-5.458-2.444-5.458-5.458v-3.55
				c0-3.014,2.444-5.458,5.458-5.458h22.466c3.014,0,5.458,2.443,5.458,5.458v3.55C272.375,240.327,269.931,242.77,266.917,242.77z"
				/>
			<path id="XMLID_4_" style="fill:#FFE849;" d="M257.324,243.705h-16.371c-2.955,0-5.35-2.395-5.35-5.35v-6.44
				c0-2.955,2.395-5.35,5.35-5.35h16.371c2.955,0,5.35,2.395,5.35,5.35v6.44C262.674,241.31,260.279,243.705,257.324,243.705z"/>
			<path id="XMLID_16_" style="fill:#FF7802;" d="M223.324,238.758h-0.458c-2.275,0-4.12-1.844-4.12-4.12l0,0
				c0-2.275,1.844-4.12,4.12-4.12h0.458c2.275,0,4.12,1.844,4.12,4.12l0,0C227.443,236.913,225.599,238.758,223.324,238.758z"/>
			<path id="XMLID_29_" style="fill:#FFAD5D;" d="M185.583,225.551c0,0,13.25-3.25,17.5-2.25s5.667,6.167,5.5,9.583
				c-0.167,3.417-2.333,5.167-3.75,5.167c-1.417,0-2.417-1-2.417-1s-1,1.417-3,1.25c-2-0.167-3.167-1.417-3.167-1.417
				s-0.75,1.667-3,1.333c-2.25-0.333-3.333-2.75-3.333-2.75s-3.599-0.981-4.75-1.417C181.812,232.78,182,228.134,185.583,225.551z"
				/>
			<path id="XMLID_47_" style="fill:#FFAD5D;" d="M191.67,173.78c-7.34,2.67-15.17,3-15.17,3l-0.21,0.86l-1.46,5.97
				c0,0-12.16,3.17-18.83-5.83l0.33-7.17c0,0-9.5-5.83-12.5-24.16c-3-18.34,9.5-30.34,17-32.5c7.5-2.17,34.34-2.84,38.34,9.5
				c2.66,8.18,2.89,17.1,2.89,23.54c0,3.26-0.06,5.89,0.11,7.46C202.67,159.11,199,171.11,191.67,173.78z"/>
			<path id="XMLID_23_" style="fill:#00742C;" d="M152.75,178.405c0,0,0.5-4.5,2.125-5s15.25,4,16.25,4.625s1.375,3.125,1.375,3.125
				s1.125-3.125,2.125-3.25s2.5,0,2.5,0s0.75,3.5,0,5.875s-4,2.625-10.25,1.75S152.75,178.405,152.75,178.405z"/>
			<path id="XMLID_45_" style="fill:#AAC5FF;" d="M191.67,173.78c-7.34,2.67-15.17,3-15.17,3s-16.41-4.63-20-9.12
				c-5.38-6.76-0.25-17.63-0.25-17.63s25.13-4.87,37.37-4.75c4.25,0.04,6.86,0.6,8.44,1.71c0,3.26-0.06,5.89,0.11,7.46
				C202.67,159.11,199,171.11,191.67,173.78z"/>
			<path id="XMLID_35_" style="fill:#00742C;" d="M156.167,124.114c0,0,2.667,41.5,1.333,45c-1.333,3.5-15,1.5-21.833-4.667
				c-6.833-6.167-18.333-55.5,23.167-64s49.667,26,49.167,39s1,21.5-7,23.5c0,0,1.333-8.167,0.333-12.333
				c-1-4.167-2-12.833-2.667-19c-0.667-6.167,0.5-7-2.667-9.167C192.833,120.28,159.167,121.78,156.167,124.114z"/>
			<path id="XMLID_37_" style="fill:#003E3B;" d="M150.375,123.655c0,0-0.75-4.25,1.875-5.75s4.75,1.125,7.375-0.875
				s14.625-3.625,21.125-4.25s10.25-1.25,15.125,1.75s16.5,1.25,19.875,5.75s-7.25,4.75-28.25,4.75S157.625,127.155,150.375,123.655
				z"/>
			<path id="XMLID_36_" style="fill:#046326;" d="M148.794,150.139c0.583,6.047-2.695,11.311-7.322,11.757
				c-4.627,0.446-8.85-4.095-9.433-10.142c-0.583-6.047,2.696-11.311,7.323-11.757C143.988,139.552,148.212,144.092,148.794,150.139
				z"/>
			<path id="XMLID_38_" style="fill:#9DB8EA;" d="M160.458,152.155c0,0,23.5-4.625,32.375-4.125s6.625,3.625,6.875,5.875
				s-4.705-1.802-16.375-0.375c-11.583,1.417-22.25,6.25-22.875,4.25S159.333,152.78,160.458,152.155z"/>
			<path id="XMLID_34_" style="fill:#003E3B;" d="M171.917,137.863c0,2.071-1.157,3.75-2.583,3.75c-1.427,0-2.583-1.679-2.583-3.75
				c0-2.071,1.157-3.75,2.583-3.75C170.76,134.113,171.917,135.792,171.917,137.863z"/>
			<path id="XMLID_40_" style="fill:#003E3B;" d="M194.417,136.863c0,2.071-1.157,3.75-2.583,3.75c-1.427,0-2.583-1.679-2.583-3.75
				c0-2.071,1.157-3.75,2.583-3.75C193.26,133.113,194.417,134.792,194.417,136.863z"/>
			<path id="XMLID_41_" style="fill:#D4B400;" d="M84.5,297.114H51.167c-4.51,0-8.167-3.656-8.167-8.167v-72
				c0-4.51,3.656-8.167,8.167-8.167H84.5c4.51,0,8.167,3.656,8.167,8.167v72C92.667,293.457,89.01,297.114,84.5,297.114z"/>
			<path id="XMLID_43_" style="fill:#FFCE71;" d="M82.125,225.28h-3.75c-2.002,0-3.625-1.623-3.625-3.625v-4.25
				c0-2.002,1.623-3.625,3.625-3.625h3.75c2.002,0,3.625,1.623,3.625,3.625v4.25C85.75,223.657,84.127,225.28,82.125,225.28z"/>
			<rect id="XMLID_44_" x="60" y="208.447" style="fill:#FFD56E;" width="10.333" height="88.667"/>
			<path id="XMLID_54_" style="fill:#00742C;" d="M172.35,264.04c1.31-23.59,0.32-80.59,0.32-80.59l2.16,0.16
				c0,0,2.75,59.24,3.13,79.69C176.16,263.61,174.28,263.85,172.35,264.04z"/>
		</g>
	</g>
</g>
</svg>
